900i.ufo
<glyph name="exclam" format="2">
  <advance width="348"/>
  <unicode hex="0021"/>
  <outline>
    <contour>
      <point x="245" y="700" type="line"/>
      <point x="475" y="700" type="line"/>
      <point x="285" y="250" type="line"/>
      <point x="125" y="250" type="line"/>
    </contour>
    <contour>
      <point x="30" y="75" type="curve" smooth="yes"/>
      <point x="30" y="138"/>
      <point x="78" y="180"/>
      <point x="148" y="180" type="curve" smooth="yes"/>
      <point x="218" y="180"/>
      <point x="266" y="138"/>
      <point x="266" y="75" type="curve" smooth="yes"/>
      <point x="266" y="12"/>
      <point x="218" y="-30"/>
      <point x="148" y="-30" type="curve" smooth="yes"/>
      <point x="78" y="-30"/>
      <point x="30" y="12"/>
    </contour>
  </outline>
</glyph>
<glyph name="numbersign" format="2">
  <advance width="663"/>
  <unicode hex="0023"/>
  <outline>
    <contour>
      <point x="154" y="396" type="line"/>
      <point x="202" y="550" type="line"/>
      <point x="768" y="550" type="line"/>
      <point x="714" y="395" type="line"/>
      <point x="568" y="395" type="line"/>
      <point x="536" y="405" type="line"/>
      <point x="337" y="405" type="line"/>
      <point x="301" y="395" type="line"/>
    </contour>
    <contour>
      <point x="27" y="155" type="line"/>
      <point x="82" y="310" type="line"/>
      <point x="211" y="310" type="line"/>
      <point x="247" y="300" type="line"/>
      <point x="480" y="300" type="line"/>
      <point x="517" y="310" type="line"/>
      <point x="649" y="310" type="line"/>
      <point x="594" y="155" type="line"/>
    </contour>
    <contour>
      <point x="632" y="699" type="line"/>
      <point x="804" y="699" type="line"/>
      <point x="403" y="0" type="line"/>
      <point x="235" y="0" type="line"/>
      <point x="362" y="222" type="line"/>
      <point x="389" y="251" type="line"/>
      <point x="504" y="452" type="line"/>
      <point x="516" y="493" type="line"/>
    </contour>
    <contour>
      <point x="391" y="700" type="line"/>
      <point x="559" y="699" type="line"/>
      <point x="439" y="492" type="line"/>
      <point x="406" y="450" type="line"/>
      <point x="294" y="255" type="line"/>
      <point x="287" y="225" type="line"/>
      <point x="158" y="0" type="line"/>
      <point x="-9" y="0" type="line"/>
    </contour>
  </outline>
</glyph>
<glyph name="percent" format="2">
  <advance width="960"/>
  <unicode hex="0025"/>
  <outline>
    <contour>
      <point x="136" y="526" type="curve" smooth="yes"/>
      <point x="166" y="632"/>
      <point x="279" y="724"/>
      <point x="391" y="724" type="curve" smooth="yes"/>
      <point x="500" y="724"/>
      <point x="563" y="625"/>
      <point x="534" y="524" type="curve" smooth="yes"/>
      <point x="504" y="418"/>
      <point x="390" y="326"/>
      <point x="278" y="326" type="curve" smooth="yes"/>
      <point x="169" y="326"/>
      <point x="107" y="425"/>
    </contour>
    <contour>
      <point x="286" y="522" type="curve" smooth="yes"/>
      <point x="281" y="504"/>
      <point x="291" y="477"/>
      <point x="322" y="477" type="curve" smooth="yes"/>
      <point x="346" y="477"/>
      <point x="377" y="506"/>
      <point x="383" y="528" type="curve" smooth="yes"/>
      <point x="388" y="546"/>
      <point x="379" y="573"/>
      <point x="348" y="573" type="curve" smooth="yes"/>
      <point x="324" y="573"/>
      <point x="292" y="544"/>
    </contour>
    <contour>
      <point x="558" y="177" type="curve" smooth="yes"/>
      <point x="588" y="283"/>
      <point x="701" y="375"/>
      <point x="813" y="375" type="curve" smooth="yes"/>
      <point x="922" y="375"/>
      <point x="984" y="276"/>
      <point x="955" y="175" type="curve" smooth="yes"/>
      <point x="925" y="69"/>
      <point x="812" y="-23"/>
      <point x="700" y="-23" type="curve" smooth="yes"/>
      <point x="591" y="-23"/>
      <point x="529" y="76"/>
    </contour>
    <contour>
      <point x="708" y="173" type="curve" smooth="yes"/>
      <point x="702" y="155"/>
      <point x="718" y="128"/>
      <point x="739" y="128" type="curve" smooth="yes"/>
      <point x="763" y="128"/>
      <point x="794" y="147"/>
      <point x="805" y="179" type="curve" smooth="yes"/>
      <point x="811" y="197"/>
      <point x="796" y="224"/>
      <point x="775" y="224" type="curve" smooth="yes"/>
      <point x="751" y="224"/>
      <point x="719" y="205"/>
    </contour>
    <contour>
      <point x="837" y="699" type="line"/>
      <point x="1049" y="699" type="line"/>
      <point x="254" y="0" type="line"/>
      <point x="42" y="0" type="line"/>
    </contour>
  </outline>
</glyph>
<glyph name="ampersand" format="2">
  <advance width="751"/>
  <unicode hex="0026"/>
  <outline>
    <contour>
      <point x="292" y="364" type="line" smooth="yes"/>
      <point x="261" y="417"/>
      <point x="235" y="474"/>
      <point x="252" y="537" type="curve" smooth="yes"/>
      <point x="282" y="652"/>
      <point x="417" y="720"/>
      <point x="529" y="720" type="curve" smooth="yes"/>
      <point x="629" y="720"/>
      <point x="723" y="651"/>
      <point x="697" y="543" type="curve" smooth="yes"/>
      <point x="671" y="435"/>
      <point x="553" y="374"/>
      <point x="462" y="328" type="curve" smooth="yes"/>
      <point x="402" y="298"/>
      <point x="283" y="283"/>
      <point x="260" y="208" type="curve" smooth="yes"/>
      <point x="248" y="170"/>
      <point x="273" y="150"/>
      <point x="308" y="146" type="curve" smooth="yes"/>
      <point x="438" y="132"/>
      <point x="562" y="271"/>
      <point x="641" y="355" type="curve"/>
      <point x="739" y="252" type="line"/>
      <point x="616" y="116"/>
      <point x="442" y="-17"/>
      <point x="250" y="-15" type="curve" smooth="yes"/>
      <point x="132" y="-14"/>
      <point x="24" y="62"/>
      <point x="59" y="191" type="curve" smooth="yes"/>
      <point x="99" y="338"/>
      <point x="257" y="373"/>
      <point x="381" y="422" type="curve" smooth="yes"/>
      <point x="424" y="439"/>
      <point x="517" y="470"/>
      <point x="526" y="524" type="curve" smooth="yes"/>
      <point x="529" y="543"/>
      <point x="519" y="569"/>
      <point x="487" y="569" type="curve" smooth="yes"/>
      <point x="460" y="569"/>
      <point x="434" y="552"/>
      <point x="424" y="520" type="curve" smooth="yes"/>
      <point x="409" y="471"/>
      <point x="447" y="422"/>
      <point x="469" y="385" type="curve" smooth="yes"/>
      <point x="698" y="0" type="line"/>
      <point x="502" y="0" type="line"/>
    </contour>
  </outline>
</glyph>
<glyph name="quotesingle" format="2">
  <advance width="301"/>
  <unicode hex="0027"/>
  <outline>
    <contour>
      <point x="262" y="700" type="line"/>
      <point x="461" y="699" type="line"/>
      <point x="250" y="371" type="line"/>
      <point x="121" y="370" type="line"/>
    </contour>
  </outline>
</glyph>
<glyph name="parenright" format="2">
  <advance width="338"/>
  <unicode hex="0029"/>
  <outline>
    <contour>
      <point x="82" y="-199" type="curve"/>
      <point x="-91" y="-198" type="line"/>
      <point x="11" y="-45"/>
      <point x="109" y="113"/>
      <point x="165" y="290" type="curve" smooth="yes"/>
      <point x="216" y="448"/>
      <point x="233" y="616"/>
      <point x="206" y="781" type="curve"/>
      <point x="370" y="781" type="line"/>
      <point x="403" y="617"/>
      <point x="392" y="450"/>
      <point x="345" y="290" type="curve" smooth="yes"/>
      <point x="292" y="111"/>
      <point x="197" y="-53"/>
    </contour>
  </outline>
</glyph>
<glyph name="plus" format="2">
  <advance width="668"/>
  <unicode hex="002B"/>
  <outline>
    <contour>
      <point x="66" y="185" type="line"/>
      <point x="131" y="370" type="line"/>
      <point x="683" y="370" type="line"/>
      <point x="618" y="185" type="line"/>
    </contour>
    <contour>
      <point x="376" y="565" type="line"/>
      <point x="571" y="565" type="line"/>
      <point x="373" y="-10" type="line"/>
      <point x="178" y="-10" type="line"/>
    </contour>
  </outline>
</glyph>
<glyph name="period" format="2">
  <advance width="316"/>
  <unicode hex="002E"/>
  <outline>
    <contour>
      <point x="25" y="85" type="curve" smooth="yes"/>
      <point x="25" y="148"/>
      <point x="73" y="200"/>
      <point x="143" y="200" type="curve" smooth="yes"/>
      <point x="213" y="200"/>
      <point x="261" y="148"/>
      <point x="261" y="85" type="curve" smooth="yes"/>
      <point x="261" y="22"/>
      <point x="213" y="-30"/>
      <point x="143" y="-30" type="curve" smooth="yes"/>
      <point x="73" y="-30"/>
      <point x="25" y="22"/>
    </contour>
  </outline>
</glyph>
<glyph name="five" format="2">
  <advance width="652"/>
  <unicode hex="0035"/>
  <outline>
    <contour>
      <point x="652" y="219" type="curve" smooth="yes"/>
      <point x="611" y="67"/>
      <point x="449" y="-13"/>
      <point x="301" y="-15" type="curve" smooth="yes"/>
      <point x="205" y="-16"/>
      <point x="113" y="8"/>
      <point x="25" y="44" type="curve"/>
      <point x="135" y="235" type="line"/>
      <point x="182" y="207"/>
      <point x="230" y="186"/>
      <point x="285" y="185" type="curve" smooth="yes"/>
      <point x="333" y="185"/>
      <point x="413" y="194"/>
      <point x="429" y="251" type="curve" smooth="yes"/>
      <point x="444" y="304"/>
      <point x="378" y="308"/>
      <point x="342" y="309" type="curve" smooth="yes"/>
      <point x="270" y="311"/>
      <point x="199" y="296"/>
      <point x="129" y="279" type="curve"/>
      <point x="347" y="700" type="line"/>
      <point x="780" y="700" type="line"/>
      <point x="720" y="510" type="line"/>
      <point x="450" y="511" type="line"/>
      <point x="379" y="421" type="line"/>
      <point x="419" y="436"/>
      <point x="462" y="445"/>
      <point x="505" y="444" type="curve" smooth="yes"/>
      <point x="628" y="440"/>
      <point x="682" y="330"/>
    </contour>
  </outline>
</glyph>
<glyph name="six" format="2">
  <advance width="683"/>
  <unicode hex="0036"/>
  <outline>
    <contour>
      <point x="298" y="254" type="curve" smooth="yes"/>
      <point x="283" y="211"/>
      <point x="301" y="168"/>
      <point x="350" y="166" type="curve" smooth="yes"/>
      <point x="402" y="164"/>
      <point x="458" y="209"/>
      <point x="474" y="256" type="curve" smooth="yes"/>
      <point x="489" y="298"/>
      <point x="471" y="344"/>
      <point x="422" y="346" type="curve" smooth="yes"/>
      <point x="370" y="348"/>
      <point x="314" y="302"/>
    </contour>
    <contour>
      <point x="486" y="694" type="line"/>
      <point x="768" y="694" type="line"/>
      <point x="477" y="467" type="line"/>
      <point x="413" y="440" type="line"/>
      <point x="449" y="463"/>
      <point x="487" y="482"/>
      <point x="531" y="482" type="curve" smooth="yes"/>
      <point x="654" y="482"/>
      <point x="711" y="364"/>
      <point x="683" y="255" type="curve" smooth="yes"/>
      <point x="641" y="90"/>
      <point x="479" y="-20"/>
      <point x="312" y="-20" type="curve" smooth="yes"/>
      <point x="153" y="-20"/>
      <point x="43" y="94"/>
      <point x="88" y="255" type="curve" smooth="yes"/>
      <point x="113" y="346"/>
      <point x="182" y="418"/>
      <point x="249" y="480" type="curve" smooth="yes"/>
    </contour>
  </outline>
</glyph>
<glyph name="colon" format="2">
  <advance width="316"/>
  <unicode hex="003A"/>
  <outline>
    <contour>
      <point x="15" y="85" type="curve" smooth="yes"/>
      <point x="15" y="148"/>
      <point x="63" y="200"/>
      <point x="133" y="200" type="curve" smooth="yes"/>
      <point x="203" y="200"/>
      <point x="251" y="148"/>
      <point x="251" y="85" type="curve" smooth="yes"/>
      <point x="251" y="22"/>
      <point x="203" y="-30"/>
      <point x="133" y="-30" type="curve" smooth="yes"/>
      <point x="63" y="-30"/>
      <point x="15" y="22"/>
    </contour>
    <contour>
      <point x="141" y="454" type="curve" smooth="yes"/>
      <point x="141" y="517"/>
      <point x="189" y="569"/>
      <point x="259" y="569" type="curve" smooth="yes"/>
      <point x="329" y="569"/>
      <point x="377" y="517"/>
      <point x="377" y="454" type="curve" smooth="yes"/>
      <point x="377" y="391"/>
      <point x="329" y="339"/>
      <point x="259" y="339" type="curve" smooth="yes"/>
      <point x="189" y="339"/>
      <point x="141" y="391"/>
    </contour>
  </outline>
</glyph>
<glyph name="semicolon" format="2">
  <advance width="405"/>
  <unicode hex="003B"/>
  <outline>
    <contour>
      <point x="199" y="444" type="curve" smooth="yes"/>
      <point x="199" y="507"/>
      <point x="247" y="559"/>
      <point x="317" y="559" type="curve" smooth="yes"/>
      <point x="387" y="559"/>
      <point x="435" y="507"/>
      <point x="435" y="444" type="curve" smooth="yes"/>
      <point x="435" y="381"/>
      <point x="387" y="329"/>
      <point x="317" y="329" type="curve" smooth="yes"/>
      <point x="247" y="329"/>
      <point x="199" y="381"/>
    </contour>
    <contour>
      <point x="107" y="108" type="line"/>
      <point x="291" y="72" type="line"/>
      <point x="81" y="-172" type="line"/>
      <point x="-64" y="-145" type="line"/>
    </contour>
  </outline>
</glyph>
<glyph name="less" format="2">
  <advance width="602"/>
  <unicode hex="003C"/>
  <outline>
    <contour>
      <point x="349" y="262" type="line"/>
      <point x="551" y="170" type="line"/>
      <point x="487" y="-7" type="line"/>
      <point x="73" y="206" type="line"/>
      <point x="120" y="339" type="line"/>
      <point x="680" y="551" type="line"/>
      <point x="609" y="347" type="line"/>
    </contour>
  </outline>
</glyph>
<glyph name="B" format="2">
  <advance width="684"/>
  <unicode hex="0042"/>
  <outline>
    <contour>
      <point x="274" y="335" type="line"/>
      <point x="307" y="425" type="line"/>
      <point x="405" y="425" type="line" smooth="yes"/>
      <point x="442" y="425"/>
      <point x="489" y="446"/>
      <point x="503" y="485" type="curve" smooth="yes"/>
      <point x="515" y="520"/>
      <point x="492" y="534"/>
      <point x="461" y="535" type="curve" smooth="yes"/>
      <point x="408" y="535" type="line"/>
      <point x="275" y="164" type="line"/>
      <point x="335" y="164" type="line" smooth="yes"/>
      <point x="378" y="166"/>
      <point x="439" y="179"/>
      <point x="454" y="228" type="curve" smooth="yes"/>
      <point x="467" y="271"/>
      <point x="427" y="277"/>
      <point x="394" y="279" type="curve" smooth="yes"/>
      <point x="255" y="280" type="line"/>
      <point x="298" y="400" type="line"/>
      <point x="442" y="400" type="line" smooth="yes"/>
      <point x="562" y="400"/>
      <point x="701" y="334"/>
      <point x="661" y="191" type="curve" smooth="yes"/>
      <point x="620" y="44"/>
      <point x="466" y="-1.66552e-14"/>
      <point x="330" y="0" type="curve" smooth="yes"/>
      <point x="8" y="0" type="line"/>
      <point x="248" y="700" type="line"/>
      <point x="525" y="700" type="line" smooth="yes"/>
      <point x="630" y="700"/>
      <point x="774" y="653"/>
      <point x="736" y="519" type="curve" smooth="yes"/>
      <point x="699" y="387"/>
      <point x="548" y="335"/>
      <point x="425" y="335" type="curve" smooth="yes"/>
    </contour>
  </outline>
</glyph>
<glyph name="G" format="2">
  <advance width="788"/>
  <unicode hex="0047"/>
  <outline>
    <contour>
      <point x="427" y="240" type="line"/>
      <point x="484" y="399" type="line"/>
      <point x="834" y="399" type="line"/>
      <point x="778" y="176"/>
      <point x="627" y="-30"/>
      <point x="363" y="-30" type="curve" smooth="yes"/>
      <point x="147" y="-30"/>
      <point x="28" y="152"/>
      <point x="90" y="350" type="curve" smooth="yes"/>
      <point x="157" y="563"/>
      <point x="369" y="720"/>
      <point x="593" y="720" type="curve" smooth="yes"/>
      <point x="719" y="720"/>
      <point x="805" y="650"/>
      <point x="860" y="541" type="curve"/>
      <point x="642" y="452" type="line"/>
      <point x="628" y="498"/>
      <point x="607" y="534"/>
      <point x="554" y="534" type="curve" smooth="yes"/>
      <point x="446" y="534"/>
      <point x="349" y="444"/>
      <point x="312" y="350" type="curve" smooth="yes"/>
      <point x="279" y="265"/>
      <point x="291" y="156"/>
      <point x="401" y="156" type="curve" smooth="yes"/>
      <point x="474" y="156"/>
      <point x="521" y="183"/>
      <point x="562" y="240" type="curve"/>
    </contour>
  </outline>
</glyph>
<glyph name="W" format="2">
  <advance width="1044"/>
  <unicode hex="0057"/>
  <outline>
    <contour>
      <point x="773" y="356" type="line"/>
      <point x="971" y="700" type="line"/>
      <point x="1233" y="699" type="line"/>
      <point x="699" y="-48" type="line"/>
      <point x="587" y="299" type="line"/>
      <point x="254" y="-51" type="line"/>
      <point x="183" y="700" type="line"/>
      <point x="431" y="700" type="line"/>
      <point x="414" y="362" type="line"/>
      <point x="712" y="741" type="line"/>
    </contour>
  </outline>
</glyph>
<glyph name="Z" format="2">
  <advance width="625"/>
  <unicode hex="005A"/>
  <outline>
    <contour>
      <point x="180" y="505" type="line"/>
      <point x="248" y="700" type="line"/>
      <point x="810" y="699" type="line"/>
      <point x="344" y="186" type="line"/>
      <point x="587" y="185" type="line"/>
      <point x="522" y="0" type="line"/>
      <point x="-59" y="0" type="line"/>
      <point x="398" y="504" type="line"/>
    </contour>
  </outline>
</glyph>
<glyph name="c" format="2">
  <advance width="458"/>
  <unicode hex="0063"/>
  <outline>
    <contour>
      <point x="240.8" y="229" type="curve" smooth="yes"/>
      <point x="223.8" y="181"/>
      <point x="248.8" y="143"/>
      <point x="298.8" y="140" type="curve" smooth="yes"/>
      <point x="349.8" y="137"/>
      <point x="396.8" y="169"/>
      <point x="435.8" y="196" type="curve"/>
      <point x="390.8" y="21" type="line"/>
      <point x="346.8" y="2"/>
      <point x="301.8" y="-10"/>
      <point x="253.8" y="-10" type="curve" smooth="yes"/>
      <point x="115.8" y="-10"/>
      <point x="9.7998" y="88"/>
      <point x="47.7998" y="231" type="curve" smooth="yes"/>
      <point x="86.7998" y="377"/>
      <point x="233.8" y="470"/>
      <point x="380.8" y="470" type="curve" smooth="yes"/>
      <point x="427.8" y="470"/>
      <point x="469.8" y="458"/>
      <point x="512.8" y="440" type="curve"/>
      <point x="465.8" y="264" type="line"/>
      <point x="442.8" y="297"/>
      <point x="416.8" y="322"/>
      <point x="373.8" y="322" type="curve" smooth="yes"/>
      <point x="310.8" y="322"/>
      <point x="258.8" y="280"/>
    </contour>
  </outline>
</glyph>
<glyph name="l" format="2">
  <advance width="277"/>
  <unicode hex="006C"/>
  <outline>
    <contour>
      <point x="256" y="780" type="line"/>
      <point x="447" y="780" type="line"/>
      <point x="179" y="0" type="line"/>
      <point x="-11" y="0" type="line"/>
    </contour>
  </outline>
</glyph>
<glyph name="p" format="2">
  <advance width="606"/>
  <unicode hex="0070"/>
  <outline>
    <contour>
      <point x="104" y="-220" type="line"/>
      <point x="-86" y="-220" type="line"/>
      <point x="147" y="460" type="line"/>
      <point x="337" y="460" type="line"/>
    </contour>
    <contour>
      <point x="606" y="229" type="curve" smooth="yes"/>
      <point x="570" y="110"/>
      <point x="464" y="-21"/>
      <point x="329" y="-20" type="curve" smooth="yes"/>
      <point x="190" y="-19"/>
      <point x="190" y="129"/>
      <point x="221" y="230" type="curve" smooth="yes"/>
      <point x="256" y="345"/>
      <point x="342" y="478"/>
      <point x="476" y="479" type="curve" smooth="yes"/>
      <point x="613" y="480"/>
      <point x="638" y="336"/>
    </contour>
    <contour>
      <point x="409" y="232" type="curve" smooth="yes"/>
      <point x="422" y="269"/>
      <point x="410" y="305"/>
      <point x="368" y="309" type="curve" smooth="yes"/>
      <point x="323" y="313"/>
      <point x="272" y="268"/>
      <point x="258" y="228" type="curve" smooth="yes"/>
      <point x="245" y="191"/>
      <point x="254" y="155"/>
      <point x="296" y="151" type="curve" smooth="yes"/>
      <point x="341" y="147"/>
      <point x="395" y="192"/>
    </contour>
  </outline>
</glyph>
<glyph name="q" format="2">
  <advance width="606"/>
  <unicode hex="0071"/>
  <outline>
    <contour>
      <point x="243" y="-220" type="line"/>
      <point x="476" y="460" type="line"/>
      <point x="667" y="460" type="line"/>
      <point x="433" y="-220" type="line"/>
    </contour>
    <contour>
      <point x="49" y="231" type="curve" smooth="yes"/>
      <point x="85" y="350"/>
      <point x="191" y="481"/>
      <point x="326" y="480" type="curve" smooth="yes"/>
      <point x="465" y="479"/>
      <point x="466" y="331"/>
      <point x="435" y="230" type="curve" smooth="yes"/>
      <point x="400" y="115"/>
      <point x="314" y="-18"/>
      <point x="180" y="-19" type="curve" smooth="yes"/>
      <point x="43" y="-20"/>
      <point x="17" y="124"/>
    </contour>
    <contour>
      <point x="247" y="228" type="curve" smooth="yes"/>
      <point x="234" y="191"/>
      <point x="246" y="155"/>
      <point x="288" y="151" type="curve" smooth="yes"/>
      <point x="333" y="147"/>
      <point x="383" y="192"/>
      <point x="397" y="232" type="curve" smooth="yes"/>
      <point x="410" y="269"/>
      <point x="401" y="305"/>
      <point x="359" y="309" type="curve" smooth="yes"/>
      <point x="314" y="313"/>
      <point x="261" y="268"/>
    </contour>
  </outline>
</glyph>
<glyph name="r" format="2">
  <advance width="436"/>
  <unicode hex="0072"/>
  <outline>
    <contour>
      <point x="333" y="460" type="line"/>
      <point x="174" y="0" type="line"/>
      <point x="-11" y="0" type="line"/>
      <point x="147" y="460" type="line"/>
    </contour>
    <contour>
      <point x="402" y="263" type="line"/>
      <point x="390" y="276"/>
      <point x="379" y="289"/>
      <point x="359" y="290" type="curve" smooth="yes"/>
      <point x="307" y="292"/>
      <point x="254" y="232"/>
      <point x="241" y="194" type="curve"/>
      <point x="250" y="282" type="line"/>
      <point x="284" y="365"/>
      <point x="379" y="472"/>
      <point x="453" y="472" type="curve" smooth="yes"/>
      <point x="487" y="472"/>
      <point x="506" y="451"/>
      <point x="526" y="426" type="curve"/>
    </contour>
  </outline>
</glyph>
<glyph name="u" format="2">
  <advance width="569"/>
  <unicode hex="0075"/>
  <outline>
    <contour>
      <point x="246" y="180" type="line" smooth="yes"/>
      <point x="238.287" y="158.618"/>
      <point x="228.015" y="116"/>
      <point x="261" y="116" type="curve" smooth="yes"/>
      <point x="295" y="116"/>
      <point x="325.55" y="131.226"/>
      <point x="341" y="176" type="curve" smooth="yes"/>
      <point x="439" y="460" type="line"/>
      <point x="629" y="460" type="line"/>
      <point x="471" y="0" type="line"/>
      <point x="280" y="0" type="line"/>
      <point x="299" y="56" type="line"/>
      <point x="263" y="17"/>
      <point x="218" y="-11"/>
      <point x="158" y="-11" type="curve" smooth="yes"/>
      <point x="49.9815" y="-11"/>
      <point x="20" y="66"/>
      <point x="46" y="160" type="curve"/>
      <point x="147" y="460" type="line"/>
      <point x="347" y="460" type="line"/>
    </contour>
  </outline>
</glyph>
<glyph name="w" format="2">
  <advance width="762"/>
  <unicode hex="0077"/>
  <outline>
    <contour>
      <point x="92" y="460" type="line"/>
      <point x="276" y="460" type="line"/>
      <point x="285" y="271" type="line"/>
      <point x="493" y="500" type="line"/>
      <point x="539" y="268" type="line"/>
      <point x="684" y="459" type="line"/>
      <point x="888" y="459" type="line"/>
      <point x="473" y="-29" type="line"/>
      <point x="405" y="206" type="line"/>
      <point x="170" y="-30" type="line"/>
    </contour>
  </outline>
</glyph>
<glyph name="braceleft" format="2">
  <advance width="424"/>
  <unicode hex="007B"/>
  <outline>
    <contour>
      <point x="449" y="579" type="curve" smooth="yes"/>
      <point x="421" y="489" type="line" smooth="yes"/>
      <point x="383" y="371"/>
      <point x="324" y="298"/>
      <point x="197" y="281" type="curve"/>
      <point x="202" y="301" type="line"/>
      <point x="322" y="280"/>
      <point x="324" y="192"/>
      <point x="293" y="89" type="curve" smooth="yes"/>
      <point x="264" y="0" type="line" smooth="yes"/>
      <point x="255" y="-28"/>
      <point x="261" y="-48"/>
      <point x="290" y="-49" type="curve" smooth="yes"/>
      <point x="328" y="-50" type="line"/>
      <point x="284" y="-199" type="line"/>
      <point x="189" y="-200" type="line" smooth="yes"/>
      <point x="104" y="-197"/>
      <point x="9" y="-158"/>
      <point x="39" y="-60" type="curve" smooth="yes"/>
      <point x="91" y="110" type="line" smooth="yes"/>
      <point x="106" y="162"/>
      <point x="109" y="192"/>
      <point x="60" y="220" type="curve"/>
      <point x="100" y="359" type="line"/>
      <point x="154" y="382"/>
      <point x="179" y="416"/>
      <point x="198" y="471" type="curve" smooth="yes"/>
      <point x="250" y="641" type="line" smooth="yes"/>
      <point x="280" y="737"/>
      <point x="374" y="776"/>
      <point x="469" y="780" type="curve" smooth="yes"/>
      <point x="587" y="780" type="line"/>
      <point x="543" y="631" type="line"/>
      <point x="512" y="631" type="line" smooth="yes"/>
      <point x="482" y="631"/>
      <point x="458" y="609"/>
    </contour>
  </outline>
</glyph>
<glyph name="registered" format="2">
  <advance width="752"/>
  <unicode hex="00AE"/>
  <outline>
    <contour>
      <point x="433" y="310" type="line"/>
      <point x="537" y="310" type="line"/>
      <point x="582" y="150" type="line"/>
      <point x="442" y="150" type="line"/>
    </contour>
    <contour>
      <point x="366" y="570" type="line"/>
      <point x="496" y="570" type="line"/>
      <point x="365" y="150" type="line"/>
      <point x="235" y="150" type="line"/>
    </contour>
    <contour>
      <point x="414" y="460" type="line"/>
      <point x="447" y="569" type="line"/>
      <point x="525" y="570" type="line" smooth="yes"/>
      <point x="604" y="567"/>
      <point x="683" y="527"/>
      <point x="661" y="435" type="curve" smooth="yes"/>
      <point x="639" y="342"/>
      <point x="548" y="297"/>
      <point x="459" y="293" type="curve" smooth="yes"/>
      <point x="358" y="292" type="line"/>
      <point x="390" y="390" type="line"/>
      <point x="461" y="391" type="line"/>
      <point x="482" y="393"/>
      <point x="518" y="404"/>
      <point x="525" y="428" type="curve" smooth="yes"/>
      <point x="531" y="449"/>
      <point x="511" y="458"/>
      <point x="495" y="460" type="curve"/>
    </contour>
    <contour>
      <point x="166" y="350" type="curve" smooth="yes"/>
      <point x="118" y="207"/>
      <point x="174" y="43"/>
      <point x="344" y="41" type="curve" smooth="yes"/>
      <point x="520" y="39"/>
      <point x="680" y="190"/>
      <point x="734" y="350" type="curve" smooth="yes"/>
      <point x="782" y="493"/>
      <point x="726" y="657"/>
      <point x="556" y="659" type="curve" smooth="yes"/>
      <point x="380" y="661"/>
      <point x="220" y="510"/>
    </contour>
    <contour>
      <point x="108" y="350" type="curve" smooth="yes"/>
      <point x="161" y="541"/>
      <point x="345" y="711"/>
      <point x="549" y="710" type="curve" smooth="yes"/>
      <point x="747" y="709"/>
      <point x="841" y="528"/>
      <point x="792" y="350" type="curve" smooth="yes"/>
      <point x="739" y="159"/>
      <point x="554" y="-11"/>
      <point x="350" y="-10" type="curve" smooth="yes"/>
      <point x="152" y="-9"/>
      <point x="59" y="172"/>
    </contour>
  </outline>
</glyph>
<glyph name="acute" format="2">
  <advance width="352"/>
  <unicode hex="00B4"/>
  <outline>
    <contour>
      <point x="479" y="644" type="line"/>
      <point x="270" y="501" type="line"/>
      <point x="169" y="557" type="line"/>
      <point x="354" y="709" type="line"/>
    </contour>
  </outline>
</glyph>
<glyph name="paragraph" format="2">
  <advance width="684"/>
  <unicode hex="00B6"/>
  <outline>
    <contour>
      <point x="306.523" y="272.194" type="line"/>
      <point x="193.391" y="288.389"/>
      <point x="129.372" y="368.427"/>
      <point x="165" y="486" type="curve" smooth="yes"/>
      <point x="205" y="618"/>
      <point x="322" y="700"/>
      <point x="453" y="700" type="curve" smooth="yes"/>
      <point x="817" y="700" type="line"/>
      <point x="502" y="-220" type="line"/>
      <point x="335" y="-220" type="line"/>
      <point x="613.217" y="590" type="line"/>
      <point x="582.217" y="590" type="line"/>
      <point x="304" y="-220" type="line"/>
      <point x="138" y="-220" type="line"/>
    </contour>
  </outline>
</glyph>
<glyph name="periodcentered" format="2">
  <advance width="316"/>
  <unicode hex="00B7"/>
  <outline>
    <contour>
      <point x="87" y="287" type="curve" smooth="yes"/>
      <point x="104" y="347"/>
      <point x="168" y="399"/>
      <point x="231" y="399" type="curve" smooth="yes"/>
      <point x="295" y="399"/>
      <point x="332" y="342"/>
      <point x="315" y="283" type="curve" smooth="yes"/>
      <point x="298" y="223"/>
      <point x="234" y="171"/>
      <point x="171" y="171" type="curve" smooth="yes"/>
      <point x="107" y="171"/>
      <point x="70" y="228"/>
    </contour>
  </outline>
</glyph>
<glyph name="uni00B9" format="2">
  <advance width="461"/>
  <unicode hex="00B9"/>
  <outline>
    <contour>
      <point x="243" y="546" type="line"/>
      <point x="283" y="661" type="line"/>
      <point x="529" y="706" type="line"/>
      <point x="380" y="274" type="line"/>
      <point x="254" y="274" type="line"/>
      <point x="357" y="570" type="line"/>
    </contour>
  </outline>
</glyph>
<glyph name="onehalf" format="2">
  <advance width="883"/>
  <unicode hex="00BD"/>
  <outline>
    <contour>
      <point x="776" y="699" type="line"/>
      <point x="904" y="699" type="line"/>
      <point x="174" y="0" type="line"/>
      <point x="46" y="0" type="line"/>
    </contour>
    <contour>
      <point x="147" y="546" type="line"/>
      <point x="187" y="661" type="line"/>
      <point x="433" y="706" type="line"/>
      <point x="284" y="274" type="line"/>
      <point x="158" y="274" type="line"/>
      <point x="261" y="570" type="line"/>
    </contour>
    <contour>
      <point x="418" y="3" type="line"/>
      <point x="653" y="185" type="line" smooth="yes"/>
      <point x="685" y="209"/>
      <point x="741" y="240"/>
      <point x="752" y="282" type="curve" smooth="yes"/>
      <point x="756" y="298"/>
      <point x="751" y="318"/>
      <point x="732" y="320" type="curve" smooth="yes"/>
      <point x="699" y="324"/>
      <point x="677" y="283"/>
      <point x="663" y="260" type="curve"/>
      <point x="534" y="262" type="line"/>
      <point x="571" y="355"/>
      <point x="649" y="431"/>
      <point x="755" y="431" type="curve" smooth="yes"/>
      <point x="834" y="431"/>
      <point x="909" y="376"/>
      <point x="885" y="290" type="curve" smooth="yes"/>
      <point x="872" y="243"/>
      <point x="833" y="208"/>
      <point x="795" y="181" type="curve" smooth="yes"/>
      <point x="705" y="123" type="line"/>
      <point x="843" y="121" type="line"/>
      <point x="801" y="2" type="line"/>
    </contour>
  </outline>
</glyph>
<glyph name="questiondown" format="2">
  <advance width="629"/>
  <unicode hex="00BF"/>
  <outline>
    <contour>
      <point x="246" y="199" type="curve" smooth="yes"/>
      <point x="233" y="157"/>
      <point x="262" y="138"/>
      <point x="300" y="136" type="curve" smooth="yes"/>
      <point x="370" y="132"/>
      <point x="436" y="182"/>
      <point x="487" y="224" type="curve"/>
      <point x="579" y="109" type="line"/>
      <point x="487" y="37"/>
      <point x="378" y="-26"/>
      <point x="258" y="-25" type="curve" smooth="yes"/>
      <point x="131" y="-24"/>
      <point x="18" y="65"/>
      <point x="58" y="201" type="curve" smooth="yes"/>
      <point x="94" y="324"/>
      <point x="214" y="386"/>
      <point x="328" y="418" type="curve"/>
      <point x="354" y="480" type="line"/>
      <point x="517" y="480" type="line"/>
      <point x="477" y="300" type="line"/>
      <point x="446" y="300" type="line" smooth="yes"/>
      <point x="381" y="297"/>
      <point x="269" y="272"/>
    </contour>
    <contour>
      <point x="603" y="628" type="curve" smooth="yes"/>
      <point x="588" y="572"/>
      <point x="520" y="531"/>
      <point x="464" y="531" type="curve" smooth="yes"/>
      <point x="408" y="531"/>
      <point x="361" y="574"/>
      <point x="376" y="632" type="curve" smooth="yes"/>
      <point x="391" y="688"/>
      <point x="458" y="729"/>
      <point x="514" y="729" type="curve" smooth="yes"/>
      <point x="570" y="729"/>
      <point x="618" y="686"/>
    </contour>
  </outline>
</glyph>
<glyph name="Aacute" format="2">
  <advance width="733"/>
  <unicode hex="00C1"/>
  <outline>
    <contour>
      <point x="167" y="90" type="line"/>
      <point x="223" y="248" type="line"/>
      <point x="578" y="248" type="line"/>
      <point x="522" y="90" type="line"/>
    </contour>
    <contour>
      <point x="451" y="382" type="line"/>
      <point x="301" y="188" type="line"/>
      <point x="301" y="137" type="line"/>
      <point x="184" y="0" type="line"/>
      <point x="-68" y="0" type="line"/>
      <point x="566" y="755" type="line"/>
      <point x="682" y="0" type="line"/>
      <point x="452" y="0" type="line"/>
      <point x="424" y="133" type="line"/>
      <point x="459" y="189" type="line"/>
    </contour>
    <contour>
      <point x="808" y="953" type="line"/>
      <point x="595" y="811" type="line"/>
      <point x="495" y="867" type="line"/>
      <point x="684" y="1018" type="line"/>
    </contour>
  </outline>
</glyph>
<glyph name="Aring" format="2">
  <advance width="733"/>
  <unicode hex="00C5"/>
  <outline>
    <contour>
      <point x="167" y="90" type="line"/>
      <point x="223" y="248" type="line"/>
      <point x="578" y="248" type="line"/>
      <point x="522" y="90" type="line"/>
    </contour>
    <contour>
      <point x="451" y="382" type="line"/>
      <point x="301" y="188" type="line"/>
      <point x="301" y="137" type="line"/>
      <point x="184" y="0" type="line"/>
      <point x="-68" y="0" type="line"/>
      <point x="566" y="755" type="line"/>
      <point x="682" y="0" type="line"/>
      <point x="452" y="0" type="line"/>
      <point x="424" y="133" type="line"/>
      <point x="459" y="189" type="line"/>
    </contour>
    <contour>
      <point x="453" y="804" type="curve" smooth="yes"/>
      <point x="472" y="873"/>
      <point x="547" y="926"/>
      <point x="618" y="926" type="curve" smooth="yes"/>
      <point x="689" y="926"/>
      <point x="740" y="871"/>
      <point x="720" y="800" type="curve" smooth="yes"/>
      <point x="701" y="730"/>
      <point x="625" y="678"/>
      <point x="553" y="678" type="curve" smooth="yes"/>
      <point x="482" y="678"/>
      <point x="433" y="734"/>
    </contour>
    <contour>
      <point x="545" y="800" type="curve" smooth="yes"/>
      <point x="540" y="785"/>
      <point x="545" y="761"/>
      <point x="564" y="759" type="curve" smooth="yes"/>
      <point x="586" y="757"/>
      <point x="620" y="785"/>
      <point x="627" y="804" type="curve" smooth="yes"/>
      <point x="632" y="819"/>
      <point x="626" y="844"/>
      <point x="607" y="846" type="curve" smooth="yes"/>
      <point x="585" y="848"/>
      <point x="552" y="819"/>
    </contour>
  </outline>
</glyph>
<glyph name="AE" format="2">
  <advance width="1091"/>
  <unicode hex="00C6"/>
  <outline>
    <contour>
      <point x="264" y="115" type="line"/>
      <point x="344" y="315" type="line"/>
      <point x="633" y="315" type="line"/>
      <point x="563" y="115" type="line"/>
    </contour>
    <contour>
      <point x="607" y="700" type="line"/>
      <point x="797" y="656" type="line"/>
      <point x="241" y="0" type="line"/>
      <point x="-45" y="0" type="line"/>
    </contour>
    <contour>
      <point x="588" y="0" type="line"/>
      <point x="649" y="175" type="line"/>
      <point x="1035" y="175" type="line"/>
      <point x="974" y="0" type="line"/>
    </contour>
    <contour>
      <point x="788" y="525" type="line"/>
      <point x="607" y="700" type="line"/>
      <point x="1214" y="700" type="line"/>
      <point x="1153" y="525" type="line"/>
    </contour>
    <contour>
      <point x="682" y="275" type="line"/>
      <point x="742" y="445" type="line"/>
      <point x="1109" y="445" type="line"/>
      <point x="1049" y="275" type="line"/>
    </contour>
    <contour>
      <point x="732" y="700" type="line"/>
      <point x="965" y="700" type="line"/>
      <point x="725" y="0" type="line"/>
      <point x="492" y="0" type="line"/>
    </contour>
  </outline>
</glyph>
<glyph name="Ecircumflex" format="2">
  <advance width="597"/>
  <unicode hex="00CA"/>
  <outline>
    <contour>
      <point x="150" y="0" type="line"/>
      <point x="212" y="175" type="line"/>
      <point x="551" y="175" type="line"/>
      <point x="489" y="0" type="line"/>
    </contour>
    <contour>
      <point x="330" y="525" type="line"/>
      <point x="391" y="700" type="line"/>
      <point x="730" y="700" type="line"/>
      <point x="669" y="525" type="line"/>
    </contour>
    <contour>
      <point x="244" y="275" type="line"/>
      <point x="304" y="445" type="line"/>
      <point x="624" y="445" type="line"/>
      <point x="564" y="275" type="line"/>
    </contour>
    <contour>
      <point x="248" y="700" type="line"/>
      <point x="452" y="700" type="line"/>
      <point x="212" y="0" type="line"/>
      <point x="8" y="0" type="line"/>
    </contour>
    <contour>
      <point x="538" y="857" type="line"/>
      <point x="436" y="780" type="line"/>
      <point x="326" y="877" type="line"/>
      <point x="571" y="1010" type="line"/>
      <point x="740" y="863" type="line"/>
      <point x="586" y="778" type="line"/>
    </contour>
  </outline>
</glyph>
<glyph name="Edieresis" format="2">
  <advance width="597"/>
  <unicode hex="00CB"/>
  <outline>
    <contour>
      <point x="150" y="0" type="line"/>
      <point x="212" y="175" type="line"/>
      <point x="551" y="175" type="line"/>
      <point x="489" y="0" type="line"/>
    </contour>
    <contour>
      <point x="330" y="525" type="line"/>
      <point x="391" y="700" type="line"/>
      <point x="730" y="700" type="line"/>
      <point x="669" y="525" type="line"/>
    </contour>
    <contour>
      <point x="244" y="275" type="line"/>
      <point x="304" y="445" type="line"/>
      <point x="624" y="445" type="line"/>
      <point x="564" y="275" type="line"/>
    </contour>
    <contour>
      <point x="248" y="700" type="line"/>
      <point x="452" y="700" type="line"/>
      <point x="212" y="0" type="line"/>
      <point x="8" y="0" type="line"/>
    </contour>
    <contour>
      <point x="572" y="881" type="curve" smooth="yes"/>
      <point x="587" y="934"/>
      <point x="647" y="975"/>
      <point x="701" y="975" type="curve" smooth="yes"/>
      <point x="756" y="975"/>
      <point x="795" y="930"/>
      <point x="780" y="875" type="curve" smooth="yes"/>
      <point x="765" y="822"/>
      <point x="705" y="781"/>
      <point x="651" y="781" type="curve" smooth="yes"/>
      <point x="596" y="781"/>
      <point x="557" y="826"/>
    </contour>
    <contour>
      <point x="318" y="881" type="curve" smooth="yes"/>
      <point x="333" y="934"/>
      <point x="393" y="975"/>
      <point x="447" y="975" type="curve" smooth="yes"/>
      <point x="502" y="975"/>
      <point x="541" y="930"/>
      <point x="526" y="875" type="curve" smooth="yes"/>
      <point x="511" y="822"/>
      <point x="451" y="781"/>
      <point x="397" y="781" type="curve" smooth="yes"/>
      <point x="342" y="781"/>
      <point x="303" y="826"/>
    </contour>
  </outline>
</glyph>
<glyph name="Iacute" format="2">
  <advance width="343"/>
  <unicode hex="00CD"/>
  <outline>
    <contour>
      <point x="248" y="700" type="line"/>
      <point x="466" y="700" type="line"/>
      <point x="226" y="0" type="line"/>
      <point x="8" y="0" type="line"/>
    </contour>
    <contour>
      <point x="597" y="933" type="line"/>
      <point x="384" y="791" type="line"/>
      <point x="284" y="847" type="line"/>
      <point x="473" y="998" type="line"/>
    </contour>
  </outline>
</glyph>
<glyph name="Idieresis" format="2">
  <advance width="343"/>
  <unicode hex="00CF"/>
  <outline>
    <contour>
      <point x="248" y="700" type="line"/>
      <point x="466" y="700" type="line"/>
      <point x="226" y="0" type="line"/>
      <point x="8" y="0" type="line"/>
    </contour>
    <contour>
      <point x="441" y="881" type="curve" smooth="yes"/>
      <point x="456" y="934"/>
      <point x="516" y="975"/>
      <point x="570" y="975" type="curve" smooth="yes"/>
      <point x="625" y="975"/>
      <point x="664" y="930"/>
      <point x="649" y="875" type="curve" smooth="yes"/>
      <point x="634" y="822"/>
      <point x="574" y="781"/>
      <point x="520" y="781" type="curve" smooth="yes"/>
      <point x="465" y="781"/>
      <point x="426" y="826"/>
    </contour>
    <contour>
      <point x="187" y="881" type="curve" smooth="yes"/>
      <point x="202" y="934"/>
      <point x="261" y="975"/>
      <point x="315" y="975" type="curve" smooth="yes"/>
      <point x="370" y="975"/>
      <point x="410" y="930"/>
      <point x="395" y="875" type="curve" smooth="yes"/>
      <point x="380" y="822"/>
      <point x="320" y="781"/>
      <point x="266" y="781" type="curve" smooth="yes"/>
      <point x="211" y="781"/>
      <point x="172" y="826"/>
    </contour>
  </outline>
</glyph>
<glyph name="Ntilde" format="2">
  <advance width="757"/>
  <unicode hex="00D1"/>
  <outline>
    <contour>
      <point x="676" y="700" type="line"/>
      <point x="880" y="700" type="line"/>
      <point x="630" y="-31" type="line"/>
      <point x="322" y="320" type="line"/>
      <point x="212" y="0" type="line"/>
      <point x="8" y="0" type="line"/>
      <point x="258" y="731" type="line"/>
      <point x="565" y="380" type="line"/>
    </contour>
    <contour>
      <point x="373" y="862" type="line"/>
      <point x="406" y="911"/>
      <point x="456" y="962"/>
      <point x="520" y="959" type="curve" smooth="yes"/>
      <point x="565" y="957"/>
      <point x="591" y="904"/>
      <point x="636" y="907" type="curve" smooth="yes"/>
      <point x="671" y="909"/>
      <point x="700" y="939"/>
      <point x="725" y="961" type="curve"/>
      <point x="785" y="864" type="line"/>
      <point x="746" y="821"/>
      <point x="684" y="771"/>
      <point x="621" y="776" type="curve" smooth="yes"/>
      <point x="576" y="780"/>
      <point x="544" y="838"/>
      <point x="498" y="830" type="curve" smooth="yes"/>
      <point x="469" y="825"/>
      <point x="452" y="802"/>
      <point x="435" y="781" type="curve"/>
    </contour>
  </outline>
</glyph>
<glyph name="Ocircumflex" format="2">
  <advance width="790"/>
  <unicode hex="00D4"/>
  <outline>
    <contour>
      <point x="315" y="350" type="curve" smooth="yes"/>
      <point x="287" y="277"/>
      <point x="293" y="182"/>
      <point x="390" y="179" type="curve" smooth="yes"/>
      <point x="489" y="176"/>
      <point x="572" y="264"/>
      <point x="606" y="350" type="curve" smooth="yes"/>
      <point x="635" y="424"/>
      <point x="629" y="519"/>
      <point x="531" y="521" type="curve" smooth="yes"/>
      <point x="432" y="523"/>
      <point x="348" y="436"/>
    </contour>
    <contour>
      <point x="90" y="350" type="curve" smooth="yes"/>
      <point x="154" y="555"/>
      <point x="356" y="720"/>
      <point x="574" y="720" type="curve" smooth="yes"/>
      <point x="784" y="720"/>
      <point x="891" y="543"/>
      <point x="831" y="350" type="curve" smooth="yes"/>
      <point x="767" y="143"/>
      <point x="565" y="-31"/>
      <point x="343" y="-30" type="curve" smooth="yes"/>
      <point x="129" y="-29"/>
      <point x="30" y="157"/>
    </contour>
    <contour>
      <point x="638" y="857" type="line"/>
      <point x="536" y="780" type="line"/>
      <point x="426" y="877" type="line"/>
      <point x="671" y="1010" type="line"/>
      <point x="840" y="863" type="line"/>
      <point x="686" y="778" type="line"/>
    </contour>
  </outline>
</glyph>
<glyph name="Otilde" format="2">
  <advance width="790"/>
  <unicode hex="00D5"/>
  <outline>
    <contour>
      <point x="315" y="350" type="curve" smooth="yes"/>
      <point x="287" y="277"/>
      <point x="293" y="182"/>
      <point x="390" y="179" type="curve" smooth="yes"/>
      <point x="489" y="176"/>
      <point x="572" y="264"/>
      <point x="606" y="350" type="curve" smooth="yes"/>
      <point x="635" y="424"/>
      <point x="629" y="519"/>
      <point x="531" y="521" type="curve" smooth="yes"/>
      <point x="432" y="523"/>
      <point x="348" y="436"/>
    </contour>
    <contour>
      <point x="90" y="350" type="curve" smooth="yes"/>
      <point x="154" y="555"/>
      <point x="356" y="720"/>
      <point x="574" y="720" type="curve" smooth="yes"/>
      <point x="784" y="720"/>
      <point x="891" y="543"/>
      <point x="831" y="350" type="curve" smooth="yes"/>
      <point x="767" y="143"/>
      <point x="565" y="-31"/>
      <point x="343" y="-30" type="curve" smooth="yes"/>
      <point x="129" y="-29"/>
      <point x="30" y="157"/>
    </contour>
    <contour>
      <point x="413" y="862" type="line"/>
      <point x="446" y="911"/>
      <point x="496" y="962"/>
      <point x="560" y="959" type="curve" smooth="yes"/>
      <point x="605" y="957"/>
      <point x="631" y="904"/>
      <point x="676" y="907" type="curve" smooth="yes"/>
      <point x="711" y="909"/>
      <point x="740" y="939"/>
      <point x="765" y="961" type="curve"/>
      <point x="825" y="864" type="line"/>
      <point x="786" y="821"/>
      <point x="724" y="771"/>
      <point x="661" y="776" type="curve" smooth="yes"/>
      <point x="616" y="780"/>
      <point x="584" y="838"/>
      <point x="538" y="830" type="curve" smooth="yes"/>
      <point x="509" y="825"/>
      <point x="492" y="802"/>
      <point x="475" y="781" type="curve"/>
    </contour>
  </outline>
</glyph>
<glyph name="Udieresis" format="2">
  <advance width="701"/>
  <unicode hex="00DC"/>
  <outline>
    <contour>
      <point x="243" y="700" type="line"/>
      <point x="457" y="700" type="line"/>
      <point x="299" y="250" type="line" smooth="yes"/>
      <point x="287" y="209"/>
      <point x="285" y="159"/>
      <point x="339" y="156" type="curve" smooth="yes"/>
      <point x="395" y="153"/>
      <point x="440" y="204"/>
      <point x="460" y="251" type="curve"/>
      <point x="616" y="700" type="line"/>
      <point x="829" y="700" type="line"/>
      <point x="670" y="230" type="line" smooth="yes"/>
      <point x="612" y="68"/>
      <point x="469" y="-40"/>
      <point x="295" y="-40" type="curve" smooth="yes"/>
      <point x="132" y="-40"/>
      <point x="37" y="69"/>
      <point x="84" y="230" type="curve" smooth="yes"/>
    </contour>
    <contour>
      <point x="648" y="881" type="curve" smooth="yes"/>
      <point x="663" y="934"/>
      <point x="723" y="975"/>
      <point x="777" y="975" type="curve" smooth="yes"/>
      <point x="832" y="975"/>
      <point x="871" y="930"/>
      <point x="856" y="875" type="curve" smooth="yes"/>
      <point x="841" y="822"/>
      <point x="781" y="781"/>
      <point x="727" y="781" type="curve" smooth="yes"/>
      <point x="672" y="781"/>
      <point x="633" y="826"/>
    </contour>
    <contour>
      <point x="337" y="881" type="curve" smooth="yes"/>
      <point x="352" y="934"/>
      <point x="412" y="975"/>
      <point x="466" y="975" type="curve" smooth="yes"/>
      <point x="521" y="975"/>
      <point x="560" y="930"/>
      <point x="545" y="875" type="curve" smooth="yes"/>
      <point x="530" y="822"/>
      <point x="470" y="781"/>
      <point x="416" y="781" type="curve" smooth="yes"/>
      <point x="361" y="781"/>
      <point x="322" y="826"/>
    </contour>
  </outline>
</glyph>
<glyph name="Yacute" format="2">
  <advance width="677"/>
  <unicode hex="00DD"/>
  <outline>
    <contour>
      <point x="774" y="923" type="line"/>
      <point x="561" y="781" type="line"/>
      <point x="461" y="837" type="line"/>
      <point x="650" y="988" type="line"/>
    </contour>
    <contour>
      <point x="620" y="699" type="line"/>
      <point x="876" y="699" type="line"/>
      <point x="485" y="265" type="line"/>
      <point x="394" y="0" type="line"/>
      <point x="175" y="0" type="line"/>
      <point x="274" y="285" type="line"/>
      <point x="183" y="700" type="line"/>
      <point x="418" y="700" type="line"/>
      <point x="442" y="481" type="line"/>
    </contour>
  </outline>
</glyph>
<glyph name="ae" format="2">
  <advance width="939"/>
  <unicode hex="00E6"/>
  <outline>
    <contour>
      <point x="160" y="-10" type="curve" smooth="yes"/>
      <point x="30" y="-10"/>
      <point x="-27" y="40"/>
      <point x="3" y="130" type="curve" smooth="yes"/>
      <point x="32" y="217"/>
      <point x="132" y="275"/>
      <point x="253" y="275" type="curve" smooth="yes"/>
      <point x="313" y="275"/>
      <point x="364" y="261"/>
      <point x="446" y="220" type="curve"/>
      <point x="359" y="220" type="line"/>
      <point x="376" y="272" type="line" smooth="yes"/>
      <point x="389" y="312"/>
      <point x="372" y="333"/>
      <point x="324" y="333" type="curve" smooth="yes"/>
      <point x="280" y="333"/>
      <point x="204" y="316"/>
      <point x="161" y="298" type="curve"/>
      <point x="144" y="424" type="line"/>
      <point x="246" y="459"/>
      <point x="323" y="475"/>
      <point x="392" y="475" type="curve" smooth="yes"/>
      <point x="494" y="475"/>
      <point x="534" y="440"/>
      <point x="518" y="362" type="curve"/>
      <point x="505" y="362" type="line"/>
      <point x="575" y="434"/>
      <point x="662" y="470"/>
      <point x="765" y="470" type="curve" smooth="yes"/>
      <point x="919" y="470"/>
      <point x="975" y="389"/>
      <point x="925" y="239" type="curve" smooth="yes"/>
      <point x="919" y="220"/>
      <point x="911" y="198"/>
      <point x="907" y="190" type="curve"/>
      <point x="542" y="190" type="line"/>
      <point x="567" y="208" type="line"/>
      <point x="552" y="146"/>
      <point x="568" y="120"/>
      <point x="618" y="120" type="curve" smooth="yes"/>
      <point x="660" y="120"/>
      <point x="706" y="138"/>
      <point x="729" y="165" type="curve"/>
      <point x="898" y="137" type="line"/>
      <point x="813" y="37"/>
      <point x="715" y="-10"/>
      <point x="585" y="-10" type="curve" smooth="yes"/>
      <point x="471" y="-10"/>
      <point x="413" y="26"/>
      <point x="405" y="99" type="curve"/>
      <point x="417" y="98" type="line"/>
      <point x="367" y="28"/>
      <point x="276" y="-10"/>
    </contour>
    <contour>
      <point x="238" y="106" type="curve" smooth="yes"/>
      <point x="290" y="106"/>
      <point x="331" y="134"/>
      <point x="347" y="182" type="curve"/>
      <point x="336" y="144" type="line"/>
      <point x="344" y="179" type="line"/>
      <point x="365" y="152" type="line"/>
      <point x="341" y="170"/>
      <point x="309" y="180"/>
      <point x="275" y="180" type="curve" smooth="yes"/>
      <point x="235" y="180"/>
      <point x="212" y="167"/>
      <point x="203" y="139" type="curve" smooth="yes"/>
      <point x="196" y="117"/>
      <point x="206" y="106"/>
    </contour>
    <contour>
      <point x="574" y="234" type="curve"/>
      <point x="573" y="284" type="line"/>
      <point x="755" y="284" type="line"/>
      <point x="721" y="250" type="line"/>
      <point x="727" y="261"/>
      <point x="726" y="260"/>
      <point x="728" y="266" type="curve" smooth="yes"/>
      <point x="747" y="322"/>
      <point x="734" y="350"/>
      <point x="690" y="350" type="curve" smooth="yes"/>
      <point x="638" y="350"/>
      <point x="600" y="312"/>
    </contour>
  </outline>
</glyph>
<glyph name="icircumflex" format="2">
  <advance width="269"/>
  <unicode hex="00EE"/>
  <outline>
    <contour>
      <point x="146" y="460" type="line"/>
      <point x="329" y="460" type="line"/>
      <point x="171" y="0" type="line"/>
      <point x="-12" y="0" type="line"/>
    </contour>
    <contour>
      <point x="296" y="608" type="line"/>
      <point x="195" y="531" type="line"/>
      <point x="85" y="628" type="line"/>
      <point x="329" y="761" type="line"/>
      <point x="498" y="614" type="line"/>
      <point x="344" y="529" type="line"/>
    </contour>
  </outline>
</glyph>
<glyph name="ucircumflex" format="2">
  <advance width="569"/>
  <unicode hex="00FB"/>
  <outline>
    <contour>
      <point x="280" y="0" type="line"/>
      <point x="439" y="460" type="line"/>
      <point x="629" y="460" type="line"/>
      <point x="471" y="0" type="line"/>
    </contour>
    <contour>
      <point x="246" y="180" type="line"/>
      <point x="240" y="158"/>
      <point x="229" y="124"/>
      <point x="261" y="116" type="curve" smooth="yes"/>
      <point x="297" y="108"/>
      <point x="327" y="156"/>
      <point x="343" y="179" type="curve"/>
      <point x="374" y="188" type="line"/>
      <point x="339" y="90"/>
      <point x="274" y="-9"/>
      <point x="158" y="-11" type="curve" smooth="yes"/>
      <point x="50" y="-13"/>
      <point x="20" y="66"/>
      <point x="46" y="160" type="curve"/>
      <point x="147" y="460" type="line"/>
      <point x="347" y="460" type="line"/>
    </contour>
    <contour>
      <point x="447" y="608" type="line"/>
      <point x="345" y="531" type="line"/>
      <point x="235" y="628" type="line"/>
      <point x="480" y="761" type="line"/>
      <point x="649" y="614" type="line"/>
      <point x="494" y="529" type="line"/>
    </contour>
  </outline>
</glyph>
<glyph name="aogonek" format="2">
  <advance width="545"/>
  <unicode hex="0105"/>
  <outline>
    <contour>
      <point x="196" y="137" type="curve" smooth="yes"/>
      <point x="192" y="119"/>
      <point x="207" y="109"/>
      <point x="222" y="107" type="curve" smooth="yes"/>
      <point x="274" y="102"/>
      <point x="309" y="152"/>
      <point x="334" y="189" type="curve"/>
      <point x="332" y="128" type="line"/>
      <point x="295" y="47"/>
      <point x="227" y="-8"/>
      <point x="135" y="-9" type="curve" smooth="yes"/>
      <point x="52" y="-10"/>
      <point x="-19" y="42"/>
      <point x="6" y="131" type="curve" smooth="yes"/>
      <point x="34" y="228"/>
      <point x="143" y="273"/>
      <point x="236" y="274" type="curve" smooth="yes"/>
      <point x="290" y="275"/>
      <point x="338" y="262"/>
      <point x="382" y="231" type="curve"/>
      <point x="357" y="148" type="line"/>
      <point x="332" y="168"/>
      <point x="308" y="182"/>
      <point x="274" y="180" type="curve" smooth="yes"/>
      <point x="250" y="178"/>
      <point x="203" y="164"/>
    </contour>
    <contour>
      <point x="167" y="297" type="curve"/>
      <point x="145" y="426" type="line"/>
      <point x="218" y="452"/>
      <point x="294" y="475"/>
      <point x="372" y="475" type="curve" smooth="yes"/>
      <point x="465" y="475"/>
      <point x="582" y="435"/>
      <point x="555" y="320" type="curve"/>
      <point x="447" y="0" type="line"/>
      <point x="266" y="0" type="line"/>
      <point x="365" y="273" type="line"/>
      <point x="373" y="307"/>
      <point x="360" y="326"/>
      <point x="325" y="331" type="curve" smooth="yes"/>
      <point x="273" y="338"/>
      <point x="215" y="314"/>
    </contour>
    <contour>
      <point x="365" y="-99" type="curve"/>
      <point x="373" y="-183" type="line"/>
      <point x="340" y="-205"/>
      <point x="305" y="-221"/>
      <point x="265" y="-220" type="curve" smooth="yes"/>
      <point x="208" y="-218"/>
      <point x="167" y="-177"/>
      <point x="182" y="-118" type="curve" smooth="yes"/>
      <point x="202" y="-41"/>
      <point x="294" y="-5"/>
      <point x="358" y="25" type="curve"/>
      <point x="399" y="0" type="line"/>
      <point x="366" y="-25"/>
      <point x="313" y="-48"/>
      <point x="299" y="-91" type="curve" smooth="yes"/>
      <point x="296" y="-102"/>
      <point x="295" y="-116"/>
      <point x="309" y="-119" type="curve" smooth="yes"/>
      <point x="326" y="-122"/>
      <point x="350" y="-106"/>
    </contour>
  </outline>
</glyph>
<glyph name="Cdotaccent" format="2">
  <advance width="668"/>
  <unicode hex="010A"/>
  <outline>
    <contour>
      <point x="323" y="350" type="curve" smooth="yes"/>
      <point x="290" y="265"/>
      <point x="329" y="191"/>
      <point x="423" y="188" type="curve" smooth="yes"/>
      <point x="505" y="186"/>
      <point x="579" y="230"/>
      <point x="646" y="271" type="curve"/>
      <point x="580" y="47" type="line"/>
      <point x="512" y="8"/>
      <point x="440" y="-20"/>
      <point x="361" y="-20" type="curve" smooth="yes"/>
      <point x="148" y="-20"/>
      <point x="27" y="148"/>
      <point x="90" y="350" type="curve" smooth="yes"/>
      <point x="156" y="563"/>
      <point x="365" y="721"/>
      <point x="589" y="720" type="curve" smooth="yes"/>
      <point x="662" y="720"/>
      <point x="722" y="695"/>
      <point x="779" y="652" type="curve"/>
      <point x="711" y="427" type="line"/>
      <point x="673" y="480"/>
      <point x="625" y="512"/>
      <point x="557" y="512" type="curve" smooth="yes"/>
      <point x="457" y="511"/>
      <point x="359" y="443"/>
    </contour>
    <contour>
      <point x="513" y="881" type="curve" smooth="yes"/>
      <point x="528" y="934"/>
      <point x="588" y="975"/>
      <point x="642" y="975" type="curve" smooth="yes"/>
      <point x="697" y="975"/>
      <point x="736" y="930"/>
      <point x="721" y="875" type="curve" smooth="yes"/>
      <point x="706" y="822"/>
      <point x="646" y="781"/>
      <point x="592" y="781" type="curve" smooth="yes"/>
      <point x="537" y="781"/>
      <point x="498" y="826"/>
    </contour>
  </outline>
</glyph>
<glyph name="ccaron" format="2">
  <advance width="473"/>
  <unicode hex="010D"/>
  <outline>
    <contour>
      <point x="243" y="229" type="curve" smooth="yes"/>
      <point x="225" y="182"/>
      <point x="246" y="143"/>
      <point x="297" y="140" type="curve" smooth="yes"/>
      <point x="348" y="136"/>
      <point x="396" y="168"/>
      <point x="436" y="195" type="curve"/>
      <point x="386" y="21" type="line"/>
      <point x="342" y="2"/>
      <point x="297" y="-10"/>
      <point x="249" y="-10" type="curve" smooth="yes"/>
      <point x="111" y="-10"/>
      <point x="7" y="89"/>
      <point x="49" y="231" type="curve" smooth="yes"/>
      <point x="92" y="377"/>
      <point x="241" y="470"/>
      <point x="389" y="470" type="curve" smooth="yes"/>
      <point x="436" y="470"/>
      <point x="478" y="458"/>
      <point x="521" y="440" type="curve"/>
      <point x="469" y="264" type="line"/>
      <point x="447" y="298"/>
      <point x="423" y="323"/>
      <point x="380" y="322" type="curve" smooth="yes"/>
      <point x="326" y="321"/>
      <point x="262" y="280"/>
    </contour>
    <contour>
      <point x="418" y="684" type="line"/>
      <point x="519" y="761" type="line"/>
      <point x="629" y="664" type="line"/>
      <point x="384" y="531" type="line"/>
      <point x="215" y="678" type="line"/>
      <point x="370" y="763" type="line"/>
    </contour>
  </outline>
</glyph>
<glyph name="Dcroat" format="2">
  <advance width="719"/>
  <unicode hex="0110"/>
  <outline>
    <contour>
      <point x="45" y="290" type="line"/>
      <point x="86" y="405" type="line"/>
      <point x="441" y="405" type="line"/>
      <point x="400" y="290" type="line"/>
    </contour>
    <contour>
      <point x="248" y="700" type="line"/>
      <point x="470" y="700" type="line"/>
      <point x="230" y="0" type="line"/>
      <point x="8" y="0" type="line"/>
    </contour>
    <contour>
      <point x="282" y="0" type="curve" smooth="yes"/>
      <point x="150" y="0" type="line"/>
      <point x="217" y="190" type="line"/>
      <point x="314" y="190" type="line" smooth="yes"/>
      <point x="418" y="194"/>
      <point x="500" y="253"/>
      <point x="538" y="350" type="curve" smooth="yes"/>
      <point x="573" y="439"/>
      <point x="545" y="504"/>
      <point x="446" y="509" type="curve" smooth="yes"/>
      <point x="324" y="511" type="line"/>
      <point x="391" y="700" type="line"/>
      <point x="497" y="700" type="line" smooth="yes"/>
      <point x="702" y="695"/>
      <point x="823" y="552"/>
      <point x="760" y="350" type="curve" smooth="yes"/>
      <point x="695" y="139"/>
      <point x="500" y="5"/>
    </contour>
  </outline>
</glyph>
<glyph name="eogonek" format="2">
  <advance width="573"/>
  <unicode hex="0119"/>
  <outline>
    <contour>
      <point x="141" y="191" type="line"/>
      <point x="170" y="283" type="line"/>
      <point x="385" y="285" type="line"/>
      <point x="388" y="312"/>
      <point x="394" y="345"/>
      <point x="358" y="349" type="curve" smooth="yes"/>
      <point x="302" y="355"/>
      <point x="269" y="289"/>
      <point x="248" y="249" type="curve" smooth="yes"/>
      <point x="237" y="229" type="line"/>
      <point x="221" y="190"/>
      <point x="211" y="130"/>
      <point x="266" y="122" type="curve" smooth="yes"/>
      <point x="305" y="117"/>
      <point x="343" y="142"/>
      <point x="372" y="164" type="curve"/>
      <point x="541" y="133" type="line"/>
      <point x="433.0" y="72.0"/>
      <point x="370" y="-10"/>
      <point x="254" y="-10" type="curve" smooth="yes"/>
      <point x="110" y="-10"/>
      <point x="8" y="82"/>
      <point x="50" y="230" type="curve" smooth="yes"/>
      <point x="55" y="247"/>
      <point x="61" y="263"/>
      <point x="68" y="279" type="curve" smooth="yes"/>
      <point x="125" y="401"/>
      <point x="252" y="470"/>
      <point x="384" y="470" type="curve" smooth="yes"/>
      <point x="526" y="470"/>
      <point x="609" y="381"/>
      <point x="572" y="239" type="curve" smooth="yes"/>
      <point x="568" y="223"/>
      <point x="562" y="207"/>
      <point x="557" y="191" type="curve"/>
    </contour>
    <contour>
      <point x="436.0" y="-35.0" type="curve"/>
      <point x="444.0" y="-119.0" type="line"/>
      <point x="412.0" y="-141.0"/>
      <point x="376.0" y="-156.0"/>
      <point x="336.0" y="-155.0" type="curve" smooth="yes"/>
      <point x="279.0" y="-153.0"/>
      <point x="238.0" y="-113.0"/>
      <point x="253.0" y="-54.0" type="curve" smooth="yes"/>
      <point x="273.0" y="23.0"/>
      <point x="365.0" y="60.0"/>
      <point x="429.0" y="90.0" type="curve"/>
      <point x="541.0" y="133.0" type="line"/>
      <point x="436.0" y="47.0"/>
      <point x="383.0" y="15.0"/>
      <point x="369.0" y="-26.0" type="curve" smooth="yes"/>
      <point x="365.0" y="-37.0"/>
      <point x="365.0" y="-51.0"/>
      <point x="379.0" y="-54.0" type="curve" smooth="yes"/>
      <point x="396.0" y="-57.0"/>
      <point x="421.0" y="-42.0"/>
    </contour>
  </outline>
</glyph>
<glyph name="Gcircumflex" format="2">
  <advance width="788"/>
  <unicode hex="011C"/>
  <outline>
    <contour>
      <point x="427" y="240" type="line"/>
      <point x="484" y="400" type="line"/>
      <point x="834" y="399" type="line"/>
      <point x="778" y="176"/>
      <point x="597" y="-29"/>
      <point x="353" y="-30" type="curve" smooth="yes"/>
      <point x="137" y="-30"/>
      <point x="28" y="152"/>
      <point x="90" y="350" type="curve" smooth="yes"/>
      <point x="157" y="563"/>
      <point x="369" y="722"/>
      <point x="593" y="720" type="curve" smooth="yes"/>
      <point x="719" y="719"/>
      <point x="805" y="650"/>
      <point x="860" y="541" type="curve"/>
      <point x="642" y="452" type="line"/>
      <point x="628" y="498"/>
      <point x="607" y="532"/>
      <point x="554" y="534" type="curve" smooth="yes"/>
      <point x="446" y="539"/>
      <point x="349" y="444"/>
      <point x="312" y="350" type="curve" smooth="yes"/>
      <point x="279" y="265"/>
      <point x="291" y="159"/>
      <point x="401" y="156" type="curve" smooth="yes"/>
      <point x="474" y="154"/>
      <point x="531" y="195"/>
      <point x="582" y="242" type="curve"/>
    </contour>
    <contour>
      <point x="661" y="857" type="line"/>
      <point x="560" y="780" type="line"/>
      <point x="450" y="877" type="line"/>
      <point x="695" y="1010" type="line"/>
      <point x="863" y="863" type="line"/>
      <point x="709" y="778" type="line"/>
    </contour>
  </outline>
</glyph>
<glyph name="Gdotaccent" format="2">
  <advance width="788"/>
  <unicode hex="0120"/>
  <outline>
    <contour>
      <point x="427" y="240" type="line"/>
      <point x="484" y="400" type="line"/>
      <point x="834" y="399" type="line"/>
      <point x="778" y="176"/>
      <point x="597" y="-29"/>
      <point x="353" y="-30" type="curve" smooth="yes"/>
      <point x="137" y="-30"/>
      <point x="28" y="152"/>
      <point x="90" y="350" type="curve" smooth="yes"/>
      <point x="157" y="563"/>
      <point x="369" y="722"/>
      <point x="593" y="720" type="curve" smooth="yes"/>
      <point x="719" y="719"/>
      <point x="805" y="650"/>
      <point x="860" y="541" type="curve"/>
      <point x="642" y="452" type="line"/>
      <point x="628" y="498"/>
      <point x="607" y="532"/>
      <point x="554" y="534" type="curve" smooth="yes"/>
      <point x="446" y="539"/>
      <point x="349" y="444"/>
      <point x="312" y="350" type="curve" smooth="yes"/>
      <point x="279" y="265"/>
      <point x="291" y="159"/>
      <point x="401" y="156" type="curve" smooth="yes"/>
      <point x="474" y="154"/>
      <point x="531" y="195"/>
      <point x="582" y="242" type="curve"/>
    </contour>
    <contour>
      <point x="556" y="881" type="curve" smooth="yes"/>
      <point x="571" y="934"/>
      <point x="630" y="975"/>
      <point x="684" y="975" type="curve" smooth="yes"/>
      <point x="739" y="975"/>
      <point x="778" y="930"/>
      <point x="763" y="875" type="curve" smooth="yes"/>
      <point x="748" y="822"/>
      <point x="689" y="781"/>
      <point x="635" y="781" type="curve" smooth="yes"/>
      <point x="580" y="781"/>
      <point x="541" y="826"/>
    </contour>
  </outline>
</glyph>
<glyph name="imacron" format="2">
  <advance width="269"/>
  <unicode hex="012B"/>
  <outline>
    <contour>
      <point x="146" y="460" type="line"/>
      <point x="329" y="460" type="line"/>
      <point x="171" y="0" type="line"/>
      <point x="-12" y="0" type="line"/>
    </contour>
    <contour>
      <point x="76" y="531" type="line"/>
      <point x="134" y="696" type="line"/>
      <point x="503" y="696" type="line"/>
      <point x="445" y="531" type="line"/>
    </contour>
  </outline>
</glyph>
<glyph name="Idotaccent" format="2">
  <advance width="343"/>
  <unicode hex="0130"/>
  <outline>
    <contour>
      <point x="248" y="700" type="line"/>
      <point x="466" y="700" type="line"/>
      <point x="226" y="0" type="line"/>
      <point x="8" y="0" type="line"/>
    </contour>
    <contour>
      <point x="313" y="881" type="curve" smooth="yes"/>
      <point x="328" y="934"/>
      <point x="388" y="975"/>
      <point x="442" y="975" type="curve" smooth="yes"/>
      <point x="497" y="975"/>
      <point x="536" y="930"/>
      <point x="521" y="875" type="curve" smooth="yes"/>
      <point x="506" y="822"/>
      <point x="446" y="781"/>
      <point x="392" y="781" type="curve" smooth="yes"/>
      <point x="337" y="781"/>
      <point x="298" y="826"/>
    </contour>
  </outline>
</glyph>
<glyph name="IJ" format="2">
  <advance width="663"/>
  <unicode hex="0132"/>
  <outline>
    <contour>
      <point x="152" y="-40" type="line"/>
      <point x="171" y="-54"/>
      <point x="193" y="-72"/>
      <point x="218" y="-71" type="curve" smooth="yes"/>
      <point x="260" y="-70"/>
      <point x="293" y="-29"/>
      <point x="309" y="6" type="curve"/>
      <point x="549" y="700" type="line"/>
      <point x="786" y="700" type="line"/>
      <point x="531" y="-51" type="line" smooth="yes"/>
      <point x="481" y="-187"/>
      <point x="347" y="-250"/>
      <point x="208" y="-250" type="curve" smooth="yes"/>
      <point x="131" y="-250"/>
      <point x="62" y="-224"/>
      <point x="-4" y="-186" type="curve"/>
    </contour>
    <contour>
      <point x="248" y="700" type="line"/>
      <point x="466" y="700" type="line"/>
      <point x="226" y="0" type="line"/>
      <point x="8" y="0" type="line"/>
    </contour>
  </outline>
</glyph>
<glyph name="Jcircumflex" format="2">
  <advance width="362"/>
  <unicode hex="0134"/>
  <outline>
    <contour>
      <point x="-149" y="-40" type="line"/>
      <point x="-130" y="-54"/>
      <point x="-108" y="-72"/>
      <point x="-83" y="-71" type="curve" smooth="yes"/>
      <point x="-41" y="-70"/>
      <point x="-8" y="-29"/>
      <point x="8" y="6" type="curve"/>
      <point x="248" y="700" type="line"/>
      <point x="485" y="700" type="line"/>
      <point x="230" y="-51" type="line" smooth="yes"/>
      <point x="180" y="-187"/>
      <point x="46" y="-250"/>
      <point x="-93" y="-250" type="curve" smooth="yes"/>
      <point x="-170" y="-250"/>
      <point x="-239" y="-224"/>
      <point x="-305" y="-186" type="curve"/>
    </contour>
    <contour>
      <point x="428" y="857" type="line"/>
      <point x="327" y="780" type="line"/>
      <point x="217" y="877" type="line"/>
      <point x="461" y="1010" type="line"/>
      <point x="630" y="863" type="line"/>
      <point x="476" y="778" type="line"/>
    </contour>
  </outline>
</glyph>
<glyph name="uni013C" format="2">
  <advance width="277"/>
  <unicode hex="013C"/>
  <outline>
    <contour>
      <point x="256" y="780" type="line"/>
      <point x="447" y="780" type="line"/>
      <point x="179" y="0" type="line"/>
      <point x="-11" y="0" type="line"/>
    </contour>
    <contour>
      <point x="7" y="-62" type="line"/>
      <point x="192" y="-98" type="line"/>
      <point x="-19" y="-342" type="line"/>
      <point x="-164" y="-315" type="line"/>
    </contour>
  </outline>
</glyph>
<glyph name="ldot" format="2">
  <advance width="509"/>
  <unicode hex="0140"/>
  <outline>
    <contour>
      <point x="256" y="780" type="line"/>
      <point x="447" y="780" type="line"/>
      <point x="179" y="0" type="line"/>
      <point x="-11" y="0" type="line"/>
    </contour>
    <contour>
      <point x="340" y="407" type="curve" smooth="yes"/>
      <point x="357" y="467"/>
      <point x="421" y="519"/>
      <point x="484" y="519" type="curve" smooth="yes"/>
      <point x="548" y="519"/>
      <point x="584" y="462"/>
      <point x="567" y="403" type="curve" smooth="yes"/>
      <point x="550" y="343"/>
      <point x="487" y="291"/>
      <point x="424" y="291" type="curve" smooth="yes"/>
      <point x="360" y="291"/>
      <point x="323" y="348"/>
    </contour>
  </outline>
</glyph>
<glyph name="Lslash" format="2">
  <advance width="550"/>
  <unicode hex="0141"/>
  <outline>
    <contour>
      <point x="57" y="290" type="line"/>
      <point x="34" y="384" type="line"/>
      <point x="523" y="668" type="line"/>
      <point x="547" y="577" type="line"/>
    </contour>
    <contour>
      <point x="248" y="700" type="line"/>
      <point x="462" y="700" type="line"/>
      <point x="285" y="185" type="line"/>
      <point x="554" y="185" type="line"/>
      <point x="489" y="0" type="line"/>
      <point x="8" y="0" type="line"/>
    </contour>
  </outline>
</glyph>
<glyph name="Ncaron" format="2">
  <advance width="757"/>
  <unicode hex="0147"/>
  <outline>
    <contour>
      <point x="589" y="918" type="line"/>
      <point x="690" y="995" type="line"/>
      <point x="800" y="898" type="line"/>
      <point x="556" y="765" type="line"/>
      <point x="387" y="912" type="line"/>
      <point x="541" y="997" type="line"/>
    </contour>
    <contour>
      <point x="676" y="700" type="line"/>
      <point x="880" y="700" type="line"/>
      <point x="630" y="-31" type="line"/>
      <point x="322" y="320" type="line"/>
      <point x="212" y="0" type="line"/>
      <point x="8" y="0" type="line"/>
      <point x="258" y="731" type="line"/>
      <point x="565" y="380" type="line"/>
    </contour>
  </outline>
</glyph>
<glyph name="Eng" format="2">
  <advance width="805"/>
  <unicode hex="014A"/>
  <outline>
    <contour>
      <point x="376" y="-212" type="curve" smooth="yes"/>
      <point x="318" y="-212"/>
      <point x="282" y="-197"/>
      <point x="244" y="-155" type="curve"/>
      <point x="361" y="-17" type="line"/>
      <point x="371" y="-35"/>
      <point x="381" y="-42"/>
      <point x="398" y="-42" type="curve" smooth="yes"/>
      <point x="428" y="-42"/>
      <point x="453" y="-21"/>
      <point x="464" y="13" type="curve" smooth="yes"/>
      <point x="496" y="108" type="line"/>
      <point x="296" y="316" type="line"/>
      <point x="190" y="0" type="line"/>
      <point x="-20" y="0" type="line"/>
      <point x="226" y="735" type="line"/>
      <point x="563" y="384" type="line"/>
      <point x="669" y="700" type="line"/>
      <point x="879" y="700" type="line"/>
      <point x="631" y="-42" type="line" smooth="yes"/>
      <point x="596" y="-146"/>
      <point x="498" y="-212"/>
    </contour>
  </outline>
</glyph>
<glyph name="eng" format="2">
  <advance width="605"/>
  <unicode hex="014B"/>
  <outline>
    <contour>
      <point x="163" y="-250" type="curve" smooth="yes"/>
      <point x="107" y="-250"/>
      <point x="68" y="-233"/>
      <point x="31" y="-193" type="curve"/>
      <point x="149" y="-55" type="line"/>
      <point x="159" y="-73"/>
      <point x="169" y="-80"/>
      <point x="185" y="-80" type="curve" smooth="yes"/>
      <point x="215" y="-80"/>
      <point x="240" y="-60"/>
      <point x="252" y="-25" type="curve" smooth="yes"/>
      <point x="354" y="280" type="line" smooth="yes"/>
      <point x="370" y="328"/>
      <point x="363" y="346"/>
      <point x="328" y="346" type="curve" smooth="yes"/>
      <point x="290" y="346"/>
      <point x="263" y="323"/>
      <point x="247" y="275" type="curve" smooth="yes"/>
      <point x="155" y="0" type="line"/>
      <point x="-40" y="0" type="line"/>
      <point x="114" y="460" type="line"/>
      <point x="309" y="460" type="line"/>
      <point x="287" y="394" type="line"/>
      <point x="332" y="444"/>
      <point x="389" y="471"/>
      <point x="455" y="471" type="curve" smooth="yes"/>
      <point x="571" y="471"/>
      <point x="604" y="418"/>
      <point x="565" y="300" type="curve" smooth="yes"/>
      <point x="438" y="-80" type="line" smooth="yes"/>
      <point x="402" y="-187"/>
      <point x="300" y="-250"/>
    </contour>
  </outline>
</glyph>
<glyph name="uni0157" format="2">
  <advance width="426"/>
  <unicode hex="0157"/>
  <outline>
    <contour>
      <point x="333" y="460" type="line"/>
      <point x="174" y="0" type="line"/>
      <point x="-11" y="0" type="line"/>
      <point x="147" y="460" type="line"/>
    </contour>
    <contour>
      <point x="392" y="263" type="line"/>
      <point x="380" y="276"/>
      <point x="369" y="289"/>
      <point x="349" y="290" type="curve" smooth="yes"/>
      <point x="297" y="292"/>
      <point x="264" y="233"/>
      <point x="242" y="195" type="curve"/>
      <point x="231" y="282" type="line"/>
      <point x="265" y="365"/>
      <point x="339" y="478"/>
      <point x="443" y="472" type="curve" smooth="yes"/>
      <point x="477" y="470"/>
      <point x="496" y="451"/>
      <point x="516" y="426" type="curve"/>
    </contour>
    <contour>
      <point x="5" y="-62" type="line"/>
      <point x="189" y="-98" type="line"/>
      <point x="-21" y="-342" type="line"/>
      <point x="-165" y="-315" type="line"/>
    </contour>
  </outline>
</glyph>
<glyph name="rcaron" format="2">
  <advance width="426"/>
  <unicode hex="0159"/>
  <outline>
    <contour>
      <point x="333" y="460" type="line"/>
      <point x="174" y="0" type="line"/>
      <point x="-11" y="0" type="line"/>
      <point x="147" y="460" type="line"/>
    </contour>
    <contour>
      <point x="392" y="263" type="line"/>
      <point x="380" y="276"/>
      <point x="369" y="289"/>
      <point x="349" y="290" type="curve" smooth="yes"/>
      <point x="297" y="292"/>
      <point x="264" y="233"/>
      <point x="242" y="195" type="curve"/>
      <point x="231" y="282" type="line"/>
      <point x="265" y="365"/>
      <point x="339" y="478"/>
      <point x="443" y="472" type="curve" smooth="yes"/>
      <point x="477" y="470"/>
      <point x="496" y="451"/>
      <point x="516" y="426" type="curve"/>
    </contour>
    <contour>
      <point x="405" y="685" type="line"/>
      <point x="506" y="762" type="line"/>
      <point x="616" y="665" type="line"/>
      <point x="372" y="532" type="line"/>
      <point x="203" y="679" type="line"/>
      <point x="357" y="764" type="line"/>
    </contour>
  </outline>
</glyph>
<glyph name="Utilde" format="2">
  <advance width="701"/>
  <unicode hex="0168"/>
  <outline>
    <contour>
      <point x="243" y="700" type="line"/>
      <point x="457" y="700" type="line"/>
      <point x="299" y="250" type="line" smooth="yes"/>
      <point x="287" y="209"/>
      <point x="285" y="159"/>
      <point x="339" y="156" type="curve" smooth="yes"/>
      <point x="395" y="153"/>
      <point x="440" y="204"/>
      <point x="460" y="251" type="curve"/>
      <point x="616" y="700" type="line"/>
      <point x="829" y="700" type="line"/>
      <point x="670" y="230" type="line" smooth="yes"/>
      <point x="612" y="68"/>
      <point x="469" y="-40"/>
      <point x="295" y="-40" type="curve" smooth="yes"/>
      <point x="132" y="-40"/>
      <point x="37" y="69"/>
      <point x="84" y="230" type="curve" smooth="yes"/>
    </contour>
    <contour>
      <point x="387.442" y="865.347" type="line"/>
      <point x="419.442" y="914.347"/>
      <point x="468.442" y="966.347"/>
      <point x="532.442" y="963.347" type="curve" smooth="yes"/>
      <point x="578.442" y="961.347"/>
      <point x="605.442" y="908.347"/>
      <point x="651.442" y="911.347" type="curve" smooth="yes"/>
      <point x="686.442" y="913.347"/>
      <point x="713.442" y="943.347"/>
      <point x="737.442" y="965.347" type="curve"/>
      <point x="800.442" y="869.347" type="line"/>
      <point x="761.442" y="825.347"/>
      <point x="700.442" y="775.347"/>
      <point x="637.442" y="780.347" type="curve" smooth="yes"/>
      <point x="591.442" y="784.347"/>
      <point x="560.442" y="842.347"/>
      <point x="513.442" y="834.347" type="curve" smooth="yes"/>
      <point x="484.442" y="829.347"/>
      <point x="468.442" y="806.347"/>
      <point x="452.442" y="785.347" type="curve"/>
    </contour>
  </outline>
</glyph>
<glyph name="utilde" format="2">
  <advance width="569"/>
  <unicode hex="0169"/>
  <outline>
    <contour>
      <point x="280" y="0" type="line"/>
      <point x="439" y="460" type="line"/>
      <point x="629" y="460" type="line"/>
      <point x="471" y="0" type="line"/>
    </contour>
    <contour>
      <point x="246" y="180" type="line"/>
      <point x="240" y="158"/>
      <point x="229" y="124"/>
      <point x="261" y="116" type="curve" smooth="yes"/>
      <point x="297" y="108"/>
      <point x="327" y="156"/>
      <point x="343" y="179" type="curve"/>
      <point x="374" y="188" type="line"/>
      <point x="339" y="90"/>
      <point x="274" y="-9"/>
      <point x="158" y="-11" type="curve" smooth="yes"/>
      <point x="50" y="-13"/>
      <point x="20" y="66"/>
      <point x="46" y="160" type="curve"/>
      <point x="147" y="460" type="line"/>
      <point x="347" y="460" type="line"/>
    </contour>
    <contour>
      <point x="236.357" y="616.347" type="line"/>
      <point x="268.357" y="665.347"/>
      <point x="317.357" y="717.347"/>
      <point x="381.357" y="714.347" type="curve" smooth="yes"/>
      <point x="427.357" y="712.347"/>
      <point x="454.357" y="659.347"/>
      <point x="500.357" y="662.347" type="curve" smooth="yes"/>
      <point x="535.357" y="664.347"/>
      <point x="562.357" y="694.347"/>
      <point x="586.357" y="716.347" type="curve"/>
      <point x="649.357" y="620.347" type="line"/>
      <point x="610.357" y="576.347"/>
      <point x="549.357" y="526.347"/>
      <point x="486.357" y="531.347" type="curve" smooth="yes"/>
      <point x="440.357" y="535.347"/>
      <point x="409.357" y="593.347"/>
      <point x="362.357" y="585.347" type="curve" smooth="yes"/>
      <point x="333.357" y="580.347"/>
      <point x="317.357" y="557.347"/>
      <point x="301.357" y="536.347" type="curve"/>
    </contour>
  </outline>
</glyph>
<glyph name="ubreve" format="2">
  <advance width="569"/>
  <unicode hex="016D"/>
  <outline>
    <contour>
      <point x="280" y="0" type="line"/>
      <point x="439" y="460" type="line"/>
      <point x="629" y="460" type="line"/>
      <point x="471" y="0" type="line"/>
    </contour>
    <contour>
      <point x="246" y="180" type="line"/>
      <point x="240" y="158"/>
      <point x="229" y="124"/>
      <point x="261" y="116" type="curve" smooth="yes"/>
      <point x="297" y="108"/>
      <point x="327" y="156"/>
      <point x="343" y="179" type="curve"/>
      <point x="374" y="188" type="line"/>
      <point x="339" y="90"/>
      <point x="274" y="-9"/>
      <point x="158" y="-11" type="curve" smooth="yes"/>
      <point x="50" y="-13"/>
      <point x="20" y="66"/>
      <point x="46" y="160" type="curve"/>
      <point x="147" y="460" type="line"/>
      <point x="347" y="460" type="line"/>
    </contour>
    <contour>
      <point x="303.771" y="680.012" type="curve"/>
      <point x="410.771" y="680.012" type="line"/>
      <point x="413.771" y="659.012"/>
      <point x="412.771" y="635.012"/>
      <point x="439.771" y="631.012" type="curve" smooth="yes"/>
      <point x="468.771" y="627.012"/>
      <point x="491.771" y="660.012"/>
      <point x="506.771" y="679.012" type="curve"/>
      <point x="623.771" y="678.012" type="line"/>
      <point x="590.771" y="594.012"/>
      <point x="524.771" y="532.012"/>
      <point x="429.771" y="531.012" type="curve" smooth="yes"/>
      <point x="335.771" y="530.012"/>
      <point x="294.771" y="592.012"/>
    </contour>
  </outline>
</glyph>
<glyph name="Uring" format="2">
  <advance width="701"/>
  <unicode hex="016E"/>
  <outline>
    <contour>
      <point x="243" y="700" type="line"/>
      <point x="457" y="700" type="line"/>
      <point x="299" y="250" type="line" smooth="yes"/>
      <point x="287" y="209"/>
      <point x="285" y="159"/>
      <point x="339" y="156" type="curve" smooth="yes"/>
      <point x="395" y="153"/>
      <point x="440" y="204"/>
      <point x="460" y="251" type="curve"/>
      <point x="616" y="700" type="line"/>
      <point x="829" y="700" type="line"/>
      <point x="670" y="230" type="line" smooth="yes"/>
      <point x="612" y="68"/>
      <point x="469" y="-40"/>
      <point x="295" y="-40" type="curve" smooth="yes"/>
      <point x="132" y="-40"/>
      <point x="37" y="69"/>
      <point x="84" y="230" type="curve" smooth="yes"/>
    </contour>
    <contour>
      <point x="472" y="907" type="curve" smooth="yes"/>
      <point x="491" y="976"/>
      <point x="566" y="1029"/>
      <point x="637" y="1029" type="curve" smooth="yes"/>
      <point x="708" y="1029"/>
      <point x="759" y="974"/>
      <point x="739" y="903" type="curve" smooth="yes"/>
      <point x="720" y="833"/>
      <point x="644" y="781"/>
      <point x="572" y="781" type="curve" smooth="yes"/>
      <point x="501" y="781"/>
      <point x="452" y="837"/>
    </contour>
    <contour>
      <point x="564" y="903" type="curve" smooth="yes"/>
      <point x="559" y="888"/>
      <point x="564" y="864"/>
      <point x="583" y="862" type="curve" smooth="yes"/>
      <point x="605" y="860"/>
      <point x="639" y="888"/>
      <point x="646" y="907" type="curve" smooth="yes"/>
      <point x="651" y="922"/>
      <point x="645" y="947"/>
      <point x="626" y="949" type="curve" smooth="yes"/>
      <point x="604" y="951"/>
      <point x="571" y="922"/>
    </contour>
  </outline>
</glyph>
<glyph name="ycircumflex" format="2">
  <advance width="536"/>
  <unicode hex="0177"/>
  <outline>
    <contour>
      <point x="662" y="459" type="line"/>
      <point x="146" y="-219" type="line"/>
      <point x="-48" y="-219" type="line"/>
      <point x="141" y="31" type="line"/>
      <point x="91" y="460" type="line"/>
      <point x="285" y="460" type="line"/>
      <point x="297" y="85" type="line"/>
      <point x="192" y="86" type="line"/>
      <point x="463" y="459" type="line"/>
    </contour>
    <contour>
      <point x="418.729" y="610" type="line"/>
      <point x="317.729" y="533" type="line"/>
      <point x="207.729" y="630" type="line"/>
      <point x="451.729" y="763" type="line"/>
      <point x="620.729" y="616" type="line"/>
      <point x="466.729" y="531" type="line"/>
    </contour>
  </outline>
</glyph>
<glyph name="breve" format="2">
  <advance width="513"/>
  <unicode hex="02D8"/>
  <outline>
    <contour>
      <point x="322" y="850" type="curve"/>
      <point x="429" y="850" type="line"/>
      <point x="432" y="829"/>
      <point x="431" y="805"/>
      <point x="458" y="801" type="curve" smooth="yes"/>
      <point x="487" y="797"/>
      <point x="510" y="830"/>
      <point x="525" y="849" type="curve"/>
      <point x="642" y="848" type="line"/>
      <point x="609" y="764"/>
      <point x="543" y="702"/>
      <point x="448" y="701" type="curve" smooth="yes"/>
      <point x="354" y="700"/>
      <point x="313" y="762"/>
    </contour>
  </outline>
</glyph>
<glyph name="dotaccent" format="2">
  <advance width="282"/>
  <unicode hex="02D9"/>
  <outline>
    <contour>
      <point x="265" y="830" type="curve" smooth="yes"/>
      <point x="280" y="883"/>
      <point x="340" y="924"/>
      <point x="394" y="924" type="curve" smooth="yes"/>
      <point x="449" y="924"/>
      <point x="488" y="879"/>
      <point x="473" y="824" type="curve" smooth="yes"/>
      <point x="458" y="771"/>
      <point x="398" y="730"/>
      <point x="344" y="730" type="curve" smooth="yes"/>
      <point x="289" y="730"/>
      <point x="250" y="775"/>
    </contour>
  </outline>
</glyph>
<glyph name="ring" format="2">
  <advance width="336"/>
  <unicode hex="02DA"/>
  <outline>
    <contour>
      <point x="240" y="762" type="curve" smooth="yes"/>
      <point x="259" y="831"/>
      <point x="334" y="884"/>
      <point x="405" y="884" type="curve" smooth="yes"/>
      <point x="476" y="884"/>
      <point x="527" y="829"/>
      <point x="507" y="758" type="curve" smooth="yes"/>
      <point x="488" y="688"/>
      <point x="412" y="636"/>
      <point x="340" y="636" type="curve" smooth="yes"/>
      <point x="269" y="636"/>
      <point x="220" y="692"/>
    </contour>
    <contour>
      <point x="332" y="758" type="curve" smooth="yes"/>
      <point x="327" y="743"/>
      <point x="332" y="719"/>
      <point x="351" y="717" type="curve" smooth="yes"/>
      <point x="373" y="715"/>
      <point x="407" y="743"/>
      <point x="414" y="762" type="curve" smooth="yes"/>
      <point x="419" y="777"/>
      <point x="413" y="802"/>
      <point x="394" y="804" type="curve" smooth="yes"/>
      <point x="372" y="806"/>
      <point x="339" y="777"/>
    </contour>
  </outline>
</glyph>
<glyph name="gravecomb" format="2">
  <unicode hex="0300"/>
  <outline>
    <contour>
      <point x="267" y="530" type="line"/>
      <point x="138" y="680" type="line"/>
      <point x="278" y="740" type="line"/>
      <point x="374" y="580" type="line"/>
    </contour>
  </outline>
</glyph>
<glyph name="acutecomb" format="2">
  <unicode hex="0301"/>
  <outline>
    <contour>
      <point x="234" y="525" type="line"/>
      <point x="121" y="585" type="line"/>
      <point x="324" y="745" type="line"/>
      <point x="464" y="675" type="line"/>
    </contour>
  </outline>
</glyph>
<glyph name="uni0302" format="2">
  <unicode hex="0302"/>
  <outline>
    <contour>
      <point x="186" y="551" type="line"/>
      <point x="129" y="656" type="line"/>
      <point x="354" y="776" type="line"/>
      <point x="496" y="656" type="line"/>
      <point x="379" y="551" type="line"/>
      <point x="300" y="647" type="line"/>
      <point x="338" y="647" type="line"/>
    </contour>
  </outline>
</glyph>
<glyph name="tildecomb" format="2">
  <unicode hex="0303"/>
  <outline>
    <contour>
      <point x="183" y="568" type="curve"/>
      <point x="126" y="645" type="line"/>
      <point x="153" y="694"/>
      <point x="231" y="747"/>
      <point x="299" y="747" type="curve" smooth="yes"/>
      <point x="369" y="747"/>
      <point x="354" y="692"/>
      <point x="405" y="692" type="curve" smooth="yes"/>
      <point x="439" y="692"/>
      <point x="470" y="716"/>
      <point x="504" y="748" type="curve"/>
      <point x="559" y="655" type="line"/>
      <point x="530" y="618"/>
      <point x="457" y="562"/>
      <point x="377" y="562" type="curve" smooth="yes"/>
      <point x="317" y="562"/>
      <point x="311" y="619"/>
      <point x="265" y="619" type="curve" smooth="yes"/>
      <point x="235" y="619"/>
      <point x="192" y="596"/>
    </contour>
  </outline>
</glyph>
<glyph name="uni0304" format="2">
  <unicode hex="0304"/>
  <outline>
    <contour>
      <point x="92" y="545" type="line"/>
      <point x="136" y="675" type="line"/>
      <point x="521" y="675" type="line"/>
      <point x="477" y="545" type="line"/>
    </contour>
  </outline>
</glyph>
<glyph name="uni0306" format="2">
  <unicode hex="0306"/>
  <outline>
    <contour>
      <point x="262" y="550" type="curve" smooth="yes"/>
      <point x="160" y="550"/>
      <point x="113" y="608"/>
      <point x="144" y="700" type="curve"/>
      <point x="287" y="700" type="line"/>
      <point x="277" y="670"/>
      <point x="280" y="650"/>
      <point x="295" y="650" type="curve" smooth="yes"/>
      <point x="310" y="650"/>
      <point x="327" y="670"/>
      <point x="337" y="700" type="curve"/>
      <point x="480" y="700" type="line"/>
      <point x="449" y="608"/>
      <point x="364" y="550"/>
    </contour>
  </outline>
</glyph>
<glyph name="uni0307" format="2">
  <unicode hex="0307"/>
  <outline>
    <contour>
      <point x="218" y="509" type="curve" smooth="yes"/>
      <point x="156" y="509"/>
      <point x="110" y="551"/>
      <point x="110" y="607" type="curve" smooth="yes"/>
      <point x="110" y="663"/>
      <point x="156" y="705"/>
      <point x="218" y="705" type="curve" smooth="yes"/>
      <point x="280" y="705"/>
      <point x="326" y="663"/>
      <point x="326" y="607" type="curve" smooth="yes"/>
      <point x="326" y="551"/>
      <point x="280" y="509"/>
    </contour>
  </outline>
</glyph>
<glyph name="uni030A" format="2">
  <unicode hex="030A"/>
  <outline>
    <contour>
      <point x="222" y="520" type="curve" smooth="yes"/>
      <point x="141" y="520"/>
      <point x="102" y="572"/>
      <point x="126" y="645" type="curve" smooth="yes"/>
      <point x="150" y="718"/>
      <point x="225" y="770"/>
      <point x="306" y="770" type="curve" smooth="yes"/>
      <point x="388" y="770"/>
      <point x="428" y="717"/>
      <point x="404" y="645" type="curve" smooth="yes"/>
      <point x="380" y="573"/>
      <point x="304" y="520"/>
    </contour>
    <contour>
      <point x="249" y="601" type="curve" smooth="yes"/>
      <point x="275" y="601"/>
      <point x="299" y="619"/>
      <point x="308" y="645" type="curve" smooth="yes"/>
      <point x="317" y="672"/>
      <point x="305" y="690"/>
      <point x="279" y="690" type="curve" smooth="yes"/>
      <point x="253" y="690"/>
      <point x="230" y="672"/>
      <point x="221" y="645" type="curve" smooth="yes"/>
      <point x="212" y="618"/>
      <point x="223" y="601"/>
    </contour>
  </outline>
</glyph>
<glyph name="uni030B" format="2">
  <unicode hex="030B"/>
  <outline>
    <contour>
      <point x="218" y="520" type="line"/>
      <point x="97" y="560" type="line"/>
      <point x="279" y="744" type="line"/>
      <point x="429" y="698" type="line"/>
    </contour>
    <contour>
      <point x="438" y="520" type="line"/>
      <point x="317" y="560" type="line"/>
      <point x="499" y="744" type="line"/>
      <point x="649" y="698" type="line"/>
    </contour>
  </outline>
</glyph>
<glyph name="uni030C" format="2">
  <unicode hex="030C"/>
  <outline>
    <contour>
      <point x="278" y="551" type="line"/>
      <point x="135" y="672" type="line"/>
      <point x="252" y="776" type="line"/>
      <point x="340" y="680" type="line"/>
      <point x="292" y="680" type="line"/>
      <point x="445" y="776" type="line"/>
      <point x="502" y="672" type="line"/>
    </contour>
  </outline>
</glyph>
<glyph name="uni0328" format="2">
  <unicode hex="0328"/>
  <outline>
    <contour>
      <point x="-51" y="-220" type="curve" smooth="yes"/>
      <point x="-105" y="-220"/>
      <point x="-153" y="-189"/>
      <point x="-130" y="-120" type="curve" smooth="yes"/>
      <point x="-107" y="-51"/>
      <point x="-32" y="-11"/>
      <point x="50" y="25" type="curve"/>
      <point x="93" y="0" type="line"/>
      <point x="30" y="-32"/>
      <point x="-1" y="-63"/>
      <point x="-10" y="-90" type="curve" smooth="yes"/>
      <point x="-16" y="-108"/>
      <point x="-12" y="-120"/>
      <point x="8" y="-120" type="curve" smooth="yes"/>
      <point x="24" y="-120"/>
      <point x="47" y="-113"/>
      <point x="65" y="-100" type="curve"/>
      <point x="71" y="-180" type="line"/>
      <point x="49" y="-200"/>
      <point x="12" y="-220"/>
    </contour>
  </outline>
</glyph>
<glyph name="uni03A9" format="2">
  <advance width="600"/>
  <unicode hex="03A9"/>
  <outline>
    <contour>
      <point x="-24" y="0" type="line"/>
      <point x="194" y="0" type="line"/>
      <point x="234" y="119" type="line"/>
      <point x="204" y="155"/>
      <point x="196" y="202"/>
      <point x="211" y="248" type="curve" smooth="yes"/>
      <point x="231" y="307"/>
      <point x="284" y="356"/>
      <point x="329" y="356" type="curve" smooth="yes"/>
      <point x="374" y="356"/>
      <point x="395" y="307"/>
      <point x="375" y="248" type="curve" smooth="yes"/>
      <point x="359" y="201"/>
      <point x="320" y="155"/>
      <point x="266" y="119" type="curve"/>
      <point x="226" y="0" type="line"/>
      <point x="444" y="0" type="line"/>
      <point x="500" y="168" type="line"/>
      <point x="406" y="148" type="line"/>
      <point x="487" y="206"/>
      <point x="524" y="251"/>
      <point x="546" y="317" type="curve" smooth="yes"/>
      <point x="592" y="455"/>
      <point x="508" y="559"/>
      <point x="377" y="559" type="curve" smooth="yes"/>
      <point x="246" y="559"/>
      <point x="112" y="455"/>
      <point x="86" y="317" type="curve" smooth="yes"/>
      <point x="73.1192" y="248.633"/>
      <point x="91" y="196"/>
      <point x="114" y="148" type="curve"/>
      <point x="32" y="168" type="line"/>
    </contour>
  </outline>
</glyph>
<glyph name="pi" format="2">
  <advance width="602"/>
  <unicode hex="03C0"/>
  <outline>
    <contour>
      <point x="175" y="430" type="line"/>
      <point x="351" y="430" type="line"/>
      <point x="202" y="0" type="line"/>
      <point x="26" y="0" type="line"/>
    </contour>
    <contour>
      <point x="128" y="460" type="line"/>
      <point x="672" y="460" type="line"/>
      <point x="617" y="305" type="line"/>
      <point x="74" y="305" type="line"/>
    </contour>
    <contour>
      <point x="410" y="430" type="line"/>
      <point x="586" y="430" type="line"/>
      <point x="504" y="200" type="line"/>
      <point x="492" y="160"/>
      <point x="494" y="146"/>
      <point x="532" y="131" type="curve"/>
      <point x="488" y="-8" type="line"/>
      <point x="393" y="-9"/>
      <point x="273" y="-8"/>
      <point x="306" y="121" type="curve"/>
    </contour>
  </outline>
</glyph>
<glyph name="uni0400" format="2">
  <advance width="517"/>
  <unicode hex="0400"/>
  <outline>
    <contour>
      <point x="148" y="0" type="line"/>
      <point x="209" y="175" type="line"/>
      <point x="553" y="175" type="line"/>
      <point x="492" y="0" type="line"/>
    </contour>
    <contour>
      <point x="327" y="525" type="line"/>
      <point x="389" y="700" type="line"/>
      <point x="732" y="700" type="line"/>
      <point x="671" y="525" type="line"/>
    </contour>
    <contour>
      <point x="242" y="275" type="line"/>
      <point x="302" y="445" type="line"/>
      <point x="627" y="445" type="line"/>
      <point x="567" y="275" type="line"/>
    </contour>
    <contour>
      <point x="245" y="700" type="line"/>
      <point x="454" y="700" type="line"/>
      <point x="214" y="0" type="line"/>
      <point x="5" y="0" type="line"/>
    </contour>
    <contour>
      <point x="401" y="939" type="line"/>
      <point x="539" y="992" type="line"/>
      <point x="633" y="820" type="line"/>
      <point x="528" y="779" type="line"/>
    </contour>
  </outline>
</glyph>
<glyph name="uni0410" format="2">
  <advance width="733"/>
  <unicode hex="0410"/>
  <outline>
    <contour>
      <point x="165" y="90" type="line"/>
      <point x="220" y="248" type="line"/>
      <point x="580" y="248" type="line"/>
      <point x="524" y="90" type="line"/>
    </contour>
    <contour>
      <point x="454" y="384" type="line"/>
      <point x="304" y="187" type="line"/>
      <point x="304" y="136" type="line"/>
      <point x="188" y="0" type="line"/>
      <point x="-72" y="0" type="line"/>
      <point x="565" y="759" type="line"/>
      <point x="681" y="0" type="line"/>
      <point x="452" y="0" type="line"/>
      <point x="424" y="134" type="line"/>
      <point x="459" y="189" type="line"/>
    </contour>
  </outline>
</glyph>
<glyph name="uni0412" format="2">
  <advance width="686"/>
  <unicode hex="0412"/>
  <outline>
    <contour>
      <point x="274" y="335" type="line"/>
      <point x="308" y="424" type="line"/>
      <point x="403" y="425" type="line" smooth="yes"/>
      <point x="442" y="425"/>
      <point x="490" y="446"/>
      <point x="505" y="485" type="curve" smooth="yes"/>
      <point x="518" y="519"/>
      <point x="499" y="534"/>
      <point x="468" y="535" type="curve" smooth="yes"/>
      <point x="415" y="536" type="line"/>
      <point x="277" y="163" type="line"/>
      <point x="334" y="164" type="line" smooth="yes"/>
      <point x="379" y="166"/>
      <point x="440" y="179"/>
      <point x="457" y="229" type="curve" smooth="yes"/>
      <point x="471" y="272"/>
      <point x="435" y="277"/>
      <point x="402" y="279" type="curve" smooth="yes"/>
      <point x="255" y="281" type="line"/>
      <point x="299" y="400" type="line"/>
      <point x="439" y="400" type="line" smooth="yes"/>
      <point x="559" y="397"/>
      <point x="703" y="336"/>
      <point x="666" y="191" type="curve" smooth="yes"/>
      <point x="629" y="43"/>
      <point x="473" y="2"/>
      <point x="339" y="0" type="curve" smooth="yes"/>
      <point x="8" y="0" type="line"/>
      <point x="248" y="700" type="line"/>
      <point x="522" y="700" type="line" smooth="yes"/>
      <point x="627" y="697"/>
      <point x="774" y="654"/>
      <point x="740" y="519" type="curve" smooth="yes"/>
      <point x="707" y="387"/>
      <point x="555" y="338"/>
      <point x="434" y="335" type="curve" smooth="yes"/>
    </contour>
  </outline>
</glyph>
<glyph name="uni0414" format="2">
  <advance width="879"/>
  <unicode hex="0414"/>
  <outline>
    <contour>
      <point x="508" y="346" type="line"/>
      <point x="296" y="31" type="line"/>
      <point x="27" y="31" type="line"/>
      <point x="630" y="744" type="line"/>
      <point x="743" y="30" type="line"/>
      <point x="502" y="30" type="line"/>
    </contour>
    <contour>
      <point x="567" y="0" type="line"/>
      <point x="202" y="0" type="line"/>
      <point x="162" y="-110" type="line"/>
      <point x="-61" y="-110" type="line"/>
      <point x="42" y="185" type="line"/>
      <point x="853" y="185" type="line"/>
      <point x="750" y="-110" type="line"/>
      <point x="527" y="-110" type="line"/>
    </contour>
  </outline>
</glyph>
<glyph name="uni0418" format="2">
  <advance width="757"/>
  <unicode hex="0418"/>
  <outline>
    <contour>
      <point x="797" y="466" type="line"/>
      <point x="-15" y="-56" type="line"/>
      <point x="91" y="234" type="line"/>
      <point x="904" y="757" type="line"/>
    </contour>
    <contour>
      <point x="454" y="700" type="line"/>
      <point x="268" y="154" type="line"/>
      <point x="-15" y="-56" type="line"/>
      <point x="245" y="700" type="line"/>
    </contour>
    <contour>
      <point x="904" y="757" type="line"/>
      <point x="642" y="0" type="line"/>
      <point x="433" y="0" type="line"/>
      <point x="617" y="536" type="line"/>
    </contour>
  </outline>
</glyph>
<glyph name="uni041A" format="2">
  <advance width="739"/>
  <unicode hex="041A"/>
  <outline>
    <contour>
      <point x="245" y="700" type="line"/>
      <point x="473" y="700" type="line"/>
      <point x="233" y="0" type="line"/>
      <point x="5" y="0" type="line"/>
    </contour>
    <contour>
      <point x="654" y="699" type="line"/>
      <point x="926" y="699" type="line"/>
      <point x="539" y="358" type="line"/>
      <point x="678" y="0" type="line"/>
      <point x="442" y="0" type="line"/>
      <point x="294" y="380" type="line"/>
    </contour>
  </outline>
</glyph>
<glyph name="uni041B" format="2">
  <advance width="788"/>
  <unicode hex="041B"/>
  <outline>
    <contour>
      <point x="904" y="700" type="line"/>
      <point x="664" y="0" type="line"/>
      <point x="441" y="0" type="line"/>
      <point x="615" y="505" type="line"/>
      <point x="452" y="505" type="line"/>
      <point x="393" y="330" type="line" smooth="yes"/>
      <point x="321" y="119"/>
      <point x="183" y="10"/>
      <point x="-41" y="1" type="curve"/>
      <point x="8" y="184" type="line"/>
      <point x="79" y="197"/>
      <point x="129" y="236"/>
      <point x="157" y="303" type="curve"/>
      <point x="295" y="700" type="line"/>
    </contour>
  </outline>
</glyph>
<glyph name="uni041C" format="2">
  <advance width="885"/>
  <unicode hex="041C"/>
  <outline>
    <contour>
      <point x="335" y="284" type="line"/>
      <point x="202" y="0" type="line"/>
      <point x="-35" y="0" type="line"/>
      <point x="340" y="736" type="line"/>
      <point x="500" y="362" type="line"/>
      <point x="938" y="753" type="line"/>
      <point x="804" y="0" type="line"/>
      <point x="577" y="0" type="line"/>
      <point x="638" y="263" type="line"/>
      <point x="418" y="60" type="line"/>
    </contour>
  </outline>
</glyph>
<glyph name="uni0421" format="2">
  <advance width="667"/>
  <unicode hex="0421"/>
  <outline>
    <contour>
      <point x="325" y="350" type="curve" smooth="yes"/>
      <point x="290" y="268"/>
      <point x="322" y="192"/>
      <point x="417" y="189" type="curve" smooth="yes"/>
      <point x="499" y="187"/>
      <point x="576" y="232"/>
      <point x="644" y="272" type="curve"/>
      <point x="584" y="47" type="line"/>
      <point x="517" y="7"/>
      <point x="445" y="-20"/>
      <point x="367" y="-20" type="curve" smooth="yes"/>
      <point x="154" y="-21"/>
      <point x="28" y="146"/>
      <point x="88" y="350" type="curve" smooth="yes"/>
      <point x="151" y="564"/>
      <point x="359" y="721"/>
      <point x="583" y="720" type="curve" smooth="yes"/>
      <point x="657" y="720"/>
      <point x="718" y="695"/>
      <point x="778" y="652" type="curve"/>
      <point x="715" y="426" type="line"/>
      <point x="677" y="480"/>
      <point x="631" y="512"/>
      <point x="563" y="512" type="curve" smooth="yes"/>
      <point x="462" y="511"/>
      <point x="364" y="443"/>
    </contour>
  </outline>
</glyph>
<glyph name="uni0422" format="2">
  <advance width="588"/>
  <unicode hex="0422"/>
  <outline>
    <contour>
      <point x="114" y="505" type="line"/>
      <point x="182" y="700" type="line"/>
      <point x="777" y="700" type="line"/>
      <point x="708" y="505" type="line"/>
      <point x="521" y="505" type="line"/>
      <point x="348" y="0" type="line"/>
      <point x="130" y="0" type="line"/>
      <point x="303" y="505" type="line"/>
    </contour>
  </outline>
</glyph>
<glyph name="uni0425" format="2">
  <advance width="814"/>
  <unicode hex="0425"/>
  <outline>
    <contour>
      <point x="646" y="699" type="line"/>
      <point x="931" y="699" type="line"/>
      <point x="583" y="339" type="line"/>
      <point x="686" y="0" type="line"/>
      <point x="436" y="0" type="line"/>
      <point x="406" y="186" type="line"/>
      <point x="243" y="0" type="line"/>
      <point x="-43" y="0" type="line"/>
      <point x="328" y="369" type="line"/>
      <point x="239" y="700" type="line"/>
      <point x="490" y="700" type="line"/>
      <point x="510" y="542" type="line"/>
    </contour>
  </outline>
</glyph>
<glyph name="uni0429" format="2">
  <advance width="1152"/>
  <unicode hex="0429"/>
  <outline>
    <contour>
      <point x="796" y="195" type="line"/>
      <point x="970" y="700" type="line"/>
      <point x="1188" y="700" type="line"/>
      <point x="1015" y="195" type="line"/>
      <point x="1133" y="195" type="line"/>
      <point x="1015" y="-150" type="line"/>
      <point x="801" y="-150" type="line"/>
      <point x="854" y="0" type="line"/>
      <point x="15" y="0" type="line"/>
      <point x="255" y="700" type="line"/>
      <point x="473" y="700" type="line"/>
      <point x="300" y="195" type="line"/>
      <point x="443" y="195" type="line"/>
      <point x="617" y="700" type="line"/>
      <point x="826" y="700" type="line"/>
      <point x="652" y="195" type="line"/>
    </contour>
  </outline>
</glyph>
<glyph name="uni0436" format="2">
  <advance width="945"/>
  <unicode hex="0436"/>
  <outline>
    <contour>
      <point x="807" y="459" type="line"/>
      <point x="1046" y="459" type="line"/>
      <point x="784" y="257" type="line"/>
      <point x="884" y="0" type="line"/>
      <point x="692" y="0" type="line"/>
      <point x="571" y="284" type="line"/>
    </contour>
    <contour>
      <point x="669" y="460" type="line"/>
      <point x="511" y="0" type="line"/>
      <point x="325" y="0" type="line"/>
      <point x="484" y="460" type="line"/>
    </contour>
    <contour>
      <point x="318" y="460" type="line"/>
      <point x="452" y="256" type="line"/>
      <point x="167" y="0" type="line"/>
      <point x="-70" y="0" type="line"/>
      <point x="237" y="284" type="line"/>
      <point x="131" y="460" type="line"/>
    </contour>
  </outline>
</glyph>
<glyph name="uni0437" format="2">
  <advance width="541"/>
  <unicode hex="0437"/>
  <outline>
    <contour>
      <point x="297" y="228" type="curve"/>
      <point x="316" y="289" type="line"/>
      <point x="331" y="293"/>
      <point x="361" y="300"/>
      <point x="368" y="317" type="curve" smooth="yes"/>
      <point x="371" y="324"/>
      <point x="366" y="337"/>
      <point x="348" y="337" type="curve" smooth="yes"/>
      <point x="324.978" y="337"/>
      <point x="312" y="316"/>
      <point x="306" y="296" type="curve"/>
      <point x="132" y="299" type="line"/>
      <point x="170" y="403"/>
      <point x="255" y="468"/>
      <point x="368" y="469" type="curve" smooth="yes"/>
      <point x="446" y="470"/>
      <point x="568" y="433"/>
      <point x="544" y="332" type="curve" smooth="yes"/>
      <point x="520" y="230"/>
      <point x="379" y="230"/>
    </contour>
    <contour>
      <point x="241" y="-10" type="curve" smooth="yes"/>
      <point x="126" y="-10"/>
      <point x="48" y="47"/>
      <point x="51" y="166" type="curve"/>
      <point x="218" y="164" type="line"/>
      <point x="224" y="145"/>
      <point x="227.813" y="120"/>
      <point x="262" y="120" type="curve" smooth="yes"/>
      <point x="299" y="120"/>
      <point x="320" y="141"/>
      <point x="326" y="163" type="curve" smooth="yes"/>
      <point x="333" y="191"/>
      <point x="306" y="196"/>
      <point x="288" y="200" type="curve"/>
      <point x="307" y="260" type="line"/>
      <point x="383" y="257"/>
      <point x="520" y="244"/>
      <point x="495" y="133" type="curve" smooth="yes"/>
      <point x="471" y="27"/>
      <point x="335" y="-10"/>
    </contour>
  </outline>
</glyph>
<glyph name="uni0439" format="2">
  <advance width="583"/>
  <unicode hex="0439"/>
  <outline>
    <contour>
      <point x="582" y="292" type="line"/>
      <point x="-34" y="-54" type="line"/>
      <point x="50" y="168" type="line"/>
      <point x="665" y="514" type="line"/>
    </contour>
    <contour>
      <point x="330" y="460" type="line"/>
      <point x="212" y="115" type="line"/>
      <point x="-34" y="-54" type="line"/>
      <point x="145" y="460" type="line"/>
    </contour>
    <contour>
      <point x="665" y="514" type="line"/>
      <point x="487" y="0" type="line"/>
      <point x="302" y="0" type="line"/>
      <point x="420" y="345" type="line"/>
    </contour>
    <contour>
      <point x="287" y="703.012" type="curve"/>
      <point x="394" y="703.012" type="line"/>
      <point x="397" y="682.012"/>
      <point x="396" y="658.012"/>
      <point x="423" y="654.012" type="curve" smooth="yes"/>
      <point x="452" y="650.012"/>
      <point x="475" y="683.012"/>
      <point x="490" y="702.012" type="curve"/>
      <point x="607" y="701.012" type="line"/>
      <point x="574" y="617.012"/>
      <point x="508" y="555.012"/>
      <point x="413" y="554.012" type="curve" smooth="yes"/>
      <point x="319" y="553.012"/>
      <point x="278" y="615.012"/>
    </contour>
  </outline>
</glyph>
<glyph name="uni043C" format="2">
  <advance width="646"/>
  <unicode hex="043C"/>
  <outline>
    <contour>
      <point x="406" y="0" type="line"/>
      <point x="454" y="302" type="line"/>
      <point x="618" y="512" type="line"/>
      <point x="587" y="0" type="line"/>
    </contour>
    <contour>
      <point x="297" y="184" type="line"/>
      <point x="618" y="512" type="line"/>
      <point x="547" y="251" type="line"/>
      <point x="262" y="-34" type="line"/>
    </contour>
    <contour>
      <point x="262" y="-34" type="line"/>
      <point x="172" y="283" type="line"/>
      <point x="256" y="496" type="line"/>
      <point x="354" y="151" type="line"/>
    </contour>
    <contour>
      <point x="-61" y="0" type="line"/>
      <point x="256" y="496" type="line"/>
      <point x="278" y="266" type="line"/>
      <point x="137" y="0" type="line"/>
    </contour>
  </outline>
</glyph>
<glyph name="uni043E" format="2">
  <advance width="579"/>
  <unicode hex="043E"/>
  <outline>
    <contour>
      <point x="48" y="231" type="curve" smooth="yes"/>
      <point x="87" y="375"/>
      <point x="232" y="471"/>
      <point x="378" y="471" type="curve" smooth="yes"/>
      <point x="516" y="471"/>
      <point x="619" y="370"/>
      <point x="580" y="229" type="curve" smooth="yes"/>
      <point x="541" y="86"/>
      <point x="397" y="-10"/>
      <point x="251" y="-10" type="curve" smooth="yes"/>
      <point x="113" y="-10"/>
      <point x="9" y="90"/>
    </contour>
    <contour>
      <point x="243" y="228" type="curve" smooth="yes"/>
      <point x="230" y="197"/>
      <point x="229" y="149"/>
      <point x="272" y="146" type="curve" smooth="yes"/>
      <point x="319" y="143"/>
      <point x="368" y="192"/>
      <point x="385" y="232" type="curve" smooth="yes"/>
      <point x="398" y="263"/>
      <point x="399" y="312"/>
      <point x="356" y="315" type="curve" smooth="yes"/>
      <point x="309" y="318"/>
      <point x="260" y="268"/>
    </contour>
  </outline>
</glyph>
<glyph name="uni044A" format="2">
  <advance width="595"/>
  <unicode hex="044A"/>
  <outline>
    <contour>
      <point x="275" y="202" type="line"/>
      <point x="312" y="315" type="line"/>
      <point x="432" y="316" type="line" smooth="yes"/>
      <point x="517" y="317"/>
      <point x="584" y="264"/>
      <point x="562" y="172" type="curve" smooth="yes"/>
      <point x="540" y="80"/>
      <point x="453" y="2"/>
      <point x="359" y="1" type="curve" smooth="yes"/>
      <point x="199" y="0" type="line"/>
      <point x="254" y="144" type="line"/>
      <point x="336" y="144" type="line" smooth="yes"/>
      <point x="354" y="144"/>
      <point x="379" y="156"/>
      <point x="387" y="175" type="curve" smooth="yes"/>
      <point x="392" y="187"/>
      <point x="385" y="201"/>
      <point x="374" y="201" type="curve" smooth="yes"/>
    </contour>
    <contour>
      <point x="167" y="305" type="line"/>
      <point x="48" y="305" type="line"/>
      <point x="103" y="460" type="line"/>
      <point x="396" y="460" type="line"/>
      <point x="238" y="0" type="line"/>
      <point x="62" y="0" type="line"/>
    </contour>
  </outline>
</glyph>
<glyph name="uni0451" format="2">
  <advance width="575"/>
  <unicode hex="0451"/>
  <outline>
    <contour>
      <point x="142" y="191" type="line"/>
      <point x="170" y="283" type="line"/>
      <point x="383" y="285" type="line"/>
      <point x="387" y="310"/>
      <point x="396" y="345"/>
      <point x="361" y="349" type="curve" smooth="yes"/>
      <point x="305" y="356"/>
      <point x="271" y="289"/>
      <point x="249" y="249" type="curve" smooth="yes"/>
      <point x="238" y="229" type="line"/>
      <point x="223" y="193"/>
      <point x="208" y="130"/>
      <point x="262" y="122" type="curve" smooth="yes"/>
      <point x="300" y="116"/>
      <point x="338" y="142"/>
      <point x="366" y="164" type="curve"/>
      <point x="541" y="132" type="line"/>
      <point x="472" y="44"/>
      <point x="373" y="-10"/>
      <point x="260" y="-10" type="curve" smooth="yes"/>
      <point x="117" y="-10"/>
      <point x="9" y="81"/>
      <point x="48" y="231" type="curve" smooth="yes"/>
      <point x="52" y="248"/>
      <point x="58" y="263"/>
      <point x="65" y="279" type="curve" smooth="yes"/>
      <point x="120" y="401"/>
      <point x="247" y="470"/>
      <point x="378" y="470" type="curve" smooth="yes"/>
      <point x="520" y="470"/>
      <point x="608" y="382"/>
      <point x="575" y="238" type="curve" smooth="yes"/>
      <point x="571" y="222"/>
      <point x="566" y="207"/>
      <point x="561" y="191" type="curve"/>
    </contour>
    <contour>
      <point x="455.515" y="630" type="curve" smooth="yes"/>
      <point x="468.515" y="683"/>
      <point x="528.515" y="725"/>
      <point x="582.515" y="725" type="curve" smooth="yes"/>
      <point x="637.515" y="725"/>
      <point x="677.515" y="681"/>
      <point x="663.515" y="626" type="curve" smooth="yes"/>
      <point x="650.515" y="573"/>
      <point x="591.515" y="531"/>
      <point x="537.515" y="531" type="curve" smooth="yes"/>
      <point x="482.515" y="531"/>
      <point x="441.515" y="575"/>
    </contour>
    <contour>
      <point x="201.515" y="630" type="curve" smooth="yes"/>
      <point x="214.515" y="683"/>
      <point x="274.515" y="725"/>
      <point x="328.515" y="725" type="curve" smooth="yes"/>
      <point x="383.515" y="725"/>
      <point x="423.515" y="681"/>
      <point x="409.515" y="626" type="curve" smooth="yes"/>
      <point x="396.515" y="573"/>
      <point x="337.515" y="531"/>
      <point x="283.515" y="531" type="curve" smooth="yes"/>
      <point x="228.515" y="531"/>
      <point x="187.515" y="575"/>
    </contour>
  </outline>
</glyph>
<glyph name="uni0453" format="2">
  <advance width="352"/>
  <unicode hex="0453"/>
  <outline>
    <contour>
      <point x="145" y="460" type="line"/>
      <point x="462" y="460" type="line"/>
      <point x="408" y="305" type="line"/>
      <point x="282" y="305" type="line"/>
      <point x="176" y="0" type="line"/>
      <point x="-14" y="0" type="line"/>
    </contour>
    <contour>
      <point x="551" y="671" type="line"/>
      <point x="343" y="532" type="line"/>
      <point x="236" y="592" type="line"/>
      <point x="421" y="740" type="line"/>
    </contour>
  </outline>
</glyph>
<glyph name="uni045C" format="2">
  <advance width="413"/>
  <unicode hex="045C"/>
  <outline>
    <contour>
      <point x="145" y="460" type="line"/>
      <point x="330" y="460" type="line"/>
      <point x="172" y="0" type="line"/>
      <point x="-14" y="0" type="line"/>
    </contour>
    <contour>
      <point x="464" y="459" type="line"/>
      <point x="712" y="459" type="line"/>
      <point x="445" y="257" type="line"/>
      <point x="550" y="0" type="line"/>
      <point x="353" y="0" type="line"/>
      <point x="233" y="284" type="line"/>
    </contour>
    <contour>
      <point x="671" y="671" type="line"/>
      <point x="463" y="532" type="line"/>
      <point x="356" y="592" type="line"/>
      <point x="541" y="740" type="line"/>
    </contour>
  </outline>
</glyph>
<glyph name="daggerdbl" format="2">
  <advance width="630"/>
  <unicode hex="2021"/>
  <outline>
    <contour>
      <point x="103" y="180" type="line"/>
      <point x="571" y="180" type="line"/>
      <point x="522" y="25" type="line"/>
      <point x="54" y="25" type="line"/>
    </contour>
    <contour>
      <point x="214" y="540" type="line"/>
      <point x="682" y="540" type="line"/>
      <point x="632" y="385" type="line"/>
      <point x="165" y="385" type="line"/>
    </contour>
    <contour>
      <point x="409" y="700" type="line"/>
      <point x="585" y="700" type="line"/>
      <point x="322" y="-150" type="line"/>
      <point x="146" y="-150" type="line"/>
    </contour>
  </outline>
</glyph>
<glyph name="guilsinglright" format="2">
  <advance width="329"/>
  <unicode hex="203A"/>
  <outline>
    <contour>
      <point x="212" y="260" type="line"/>
      <point x="137" y="453" type="line"/>
      <point x="269" y="523" type="line"/>
      <point x="343" y="244" type="line"/>
      <point x="101" y="-9" type="line"/>
      <point x="4" y="74" type="line"/>
    </contour>
  </outline>
</glyph>
<glyph name="uni203D" format="2">
  <advance width="629"/>
  <unicode hex="203D"/>
  <outline>
    <contour>
      <point x="524" y="471" type="curve" smooth="yes"/>
      <point x="547" y="531"/>
      <point x="507" y="563"/>
      <point x="450" y="564" type="curve" smooth="yes"/>
      <point x="379" y="566"/>
      <point x="321" y="525"/>
      <point x="273" y="477" type="curve"/>
      <point x="181" y="591" type="line"/>
      <point x="265" y="671"/>
      <point x="381" y="724"/>
      <point x="499" y="723" type="curve" smooth="yes"/>
      <point x="625" y="722"/>
      <point x="742" y="635"/>
      <point x="702" y="499" type="curve" smooth="yes"/>
      <point x="655" y="340"/>
      <point x="476" y="279"/>
      <point x="327" y="271" type="curve"/>
      <point x="349" y="349" type="line"/>
      <point x="419" y="362"/>
      <point x="497" y="399"/>
    </contour>
    <contour>
      <point x="327" y="500" type="line"/>
      <point x="496" y="499" type="line"/>
      <point x="368" y="220" type="line"/>
      <point x="259" y="220" type="line"/>
    </contour>
    <contour>
      <point x="157" y="77" type="curve" smooth="yes"/>
      <point x="173" y="136"/>
      <point x="240" y="179"/>
      <point x="299" y="179" type="curve" smooth="yes"/>
      <point x="358" y="179"/>
      <point x="404" y="133"/>
      <point x="388" y="73" type="curve" smooth="yes"/>
      <point x="372" y="14"/>
      <point x="305" y="-29"/>
      <point x="246" y="-29" type="curve" smooth="yes"/>
      <point x="187" y="-29"/>
      <point x="141" y="17"/>
    </contour>
  </outline>
</glyph>
<glyph name="uni2070" format="2">
  <advance width="378"/>
  <unicode hex="2070"/>
  <outline>
    <contour>
      <point x="247" y="489" type="curve" smooth="yes"/>
      <point x="237" y="464"/>
      <point x="212" y="389"/>
      <point x="257" y="383" type="curve" smooth="yes"/>
      <point x="305" y="377"/>
      <point x="344" y="456"/>
      <point x="358" y="491" type="curve" smooth="yes"/>
      <point x="368" y="516"/>
      <point x="393" y="591"/>
      <point x="348" y="597" type="curve" smooth="yes"/>
      <point x="300" y="603"/>
      <point x="261" y="524"/>
    </contour>
    <contour>
      <point x="124" y="491" type="curve" smooth="yes"/>
      <point x="156" y="598"/>
      <point x="244" y="709"/>
      <point x="365" y="709" type="curve" smooth="yes"/>
      <point x="491" y="709"/>
      <point x="510" y="588"/>
      <point x="480" y="489" type="curve" smooth="yes"/>
      <point x="447" y="381"/>
      <point x="362" y="271"/>
      <point x="239" y="271" type="curve" smooth="yes"/>
      <point x="115" y="271"/>
      <point x="94" y="393"/>
    </contour>
  </outline>
</glyph>
<glyph name="uni2077" format="2">
  <advance width="370"/>
  <unicode hex="2077"/>
  <outline>
    <contour>
      <point x="156" y="577" type="line"/>
      <point x="200" y="700" type="line"/>
      <point x="561" y="699" type="line"/>
      <point x="224" y="281" type="line"/>
      <point x="74" y="281" type="line"/>
      <point x="321" y="576" type="line"/>
    </contour>
  </outline>
</glyph>
<glyph name="uni2078" format="2">
  <advance width="363"/>
  <unicode hex="2078"/>
  <outline>
    <contour>
      <point x="179" y="601" type="curve" smooth="yes"/>
      <point x="199" y="676"/>
      <point x="287" y="711"/>
      <point x="358" y="711" type="curve" smooth="yes"/>
      <point x="424" y="711"/>
      <point x="503" y="676"/>
      <point x="481" y="597" type="curve" smooth="yes"/>
      <point x="461" y="523"/>
      <point x="372" y="482"/>
      <point x="300" y="482" type="curve" smooth="yes"/>
      <point x="233" y="482"/>
      <point x="159" y="524"/>
    </contour>
    <contour>
      <point x="294" y="585" type="curve" smooth="yes"/>
      <point x="290" y="574"/>
      <point x="291" y="552"/>
      <point x="307" y="550" type="curve" smooth="yes"/>
      <point x="325" y="548"/>
      <point x="353" y="574"/>
      <point x="358" y="589" type="curve" smooth="yes"/>
      <point x="362" y="601"/>
      <point x="359" y="620"/>
      <point x="344" y="622" type="curve" smooth="yes"/>
      <point x="326" y="624"/>
      <point x="300" y="600"/>
    </contour>
    <contour>
      <point x="95" y="396" type="curve" smooth="yes"/>
      <point x="117" y="478"/>
      <point x="214" y="519"/>
      <point x="292" y="519" type="curve" smooth="yes"/>
      <point x="365" y="519"/>
      <point x="448" y="477"/>
      <point x="425" y="392" type="curve" smooth="yes"/>
      <point x="403" y="311"/>
      <point x="306" y="269"/>
      <point x="228" y="269" type="curve" smooth="yes"/>
      <point x="156" y="269"/>
      <point x="72" y="312"/>
    </contour>
    <contour>
      <point x="230" y="413" type="curve" smooth="yes"/>
      <point x="224" y="399"/>
      <point x="228" y="375"/>
      <point x="247" y="373" type="curve" smooth="yes"/>
      <point x="268" y="371"/>
      <point x="299" y="399"/>
      <point x="305" y="417" type="curve" smooth="yes"/>
      <point x="310" y="431"/>
      <point x="304" y="452"/>
      <point x="287" y="454" type="curve" smooth="yes"/>
      <point x="267" y="456"/>
      <point x="237" y="430"/>
    </contour>
  </outline>
</glyph>
<glyph name="uni2086" format="2">
  <advance width="398"/>
  <unicode hex="2086"/>
  <outline>
    <contour>
      <point x="139" y="149" type="curve" smooth="yes"/>
      <point x="132" y="126"/>
      <point x="142" y="101"/>
      <point x="168" y="98" type="curve" smooth="yes"/>
      <point x="197" y="94"/>
      <point x="238" y="127"/>
      <point x="246" y="153" type="curve" smooth="yes"/>
      <point x="253" y="176"/>
      <point x="245" y="201"/>
      <point x="219" y="205" type="curve" smooth="yes"/>
      <point x="190" y="209"/>
      <point x="147" y="175"/>
    </contour>
    <contour>
      <point x="258" y="414" type="line"/>
      <point x="436" y="414" type="line"/>
      <point x="256" y="281" type="line"/>
      <point x="214" y="264" type="line"/>
      <point x="235" y="275"/>
      <point x="255" y="285"/>
      <point x="280" y="286" type="curve" smooth="yes"/>
      <point x="355" y="289"/>
      <point x="390" y="215"/>
      <point x="373" y="150" type="curve" smooth="yes"/>
      <point x="348" y="52"/>
      <point x="246" y="-13"/>
      <point x="148" y="-13" type="curve" smooth="yes"/>
      <point x="52" y="-13"/>
      <point x="-16" y="55"/>
      <point x="13" y="152" type="curve" smooth="yes"/>
      <point x="29" y="206"/>
      <point x="72" y="249"/>
      <point x="112" y="286" type="curve" smooth="yes"/>
    </contour>
  </outline>
</glyph>
<glyph name="uni2087" format="2">
  <advance width="378"/>
  <unicode hex="2087"/>
  <outline>
    <contour>
      <point x="67" y="297" type="line"/>
      <point x="110" y="420" type="line"/>
      <point x="471" y="419" type="line"/>
      <point x="135" y="0" type="line"/>
      <point x="-16" y="0" type="line"/>
      <point x="231" y="296" type="line"/>
    </contour>
  </outline>
</glyph>
<glyph name="ruble" format="2">
  <advance width="684.0"/>
  <unicode hex="20BD"/>
  <outline>
    <contour>
      <point x="296.0" y="700" type="line"/>
      <point x="516.0" y="700" type="line"/>
      <point x="276.0" y="0" type="line"/>
      <point x="56.0" y="0" type="line"/>
    </contour>
    <contour>
      <point x="338.0" y="525" type="line"/>
      <point x="338.0" y="700" type="line"/>
      <point x="531.0" y="700" type="line" smooth="yes"/>
      <point x="686.0" y="700.0"/>
      <point x="773.9775542902574" y="633.6655589247035"/>
      <point x="764.0" y="485" type="curve" smooth="yes"/>
      <point x="754.0" y="336"/>
      <point x="606.0" y="270.0"/>
      <point x="401.0" y="270" type="curve" smooth="yes"/>
      <point x="338.0" y="270" type="line"/>
      <point x="338.0" y="445" type="line"/>
      <point x="461.0" y="445" type="line" smooth="yes"/>
      <point x="516.0" y="445.0"/>
      <point x="554.0" y="464.0"/>
      <point x="554.0" y="495" type="curve" smooth="yes"/>
      <point x="554.0" y="521.0"/>
      <point x="526.0" y="525"/>
      <point x="491.0" y="525" type="curve" smooth="yes"/>
    </contour>
    <component base="hyphen" xOffset="281.0" yOffset="-95"/>
    <component base="hyphen" xOffset="71.0" yOffset="125"/>
    <component base="hyphen" xOffset="1.0" yOffset="-95"/>
  </outline>
</glyph>
<glyph name="twothirds" format="2">
  <advance width="1018"/>
  <unicode hex="2154"/>
  <outline>
    <contour>
      <point x="905" y="699" type="line"/>
      <point x="1070" y="699" type="line"/>
      <point x="340" y="0" type="line"/>
      <point x="175" y="0" type="line"/>
    </contour>
    <contour>
      <point x="59" y="283" type="line"/>
      <point x="294" y="465" type="line" smooth="yes"/>
      <point x="326" y="489"/>
      <point x="382" y="520"/>
      <point x="393" y="562" type="curve" smooth="yes"/>
      <point x="397" y="578"/>
      <point x="392" y="598"/>
      <point x="373" y="600" type="curve" smooth="yes"/>
      <point x="340" y="604"/>
      <point x="318" y="563"/>
      <point x="304" y="540" type="curve"/>
      <point x="175" y="542" type="line"/>
      <point x="212" y="635"/>
      <point x="290" y="711"/>
      <point x="396" y="711" type="curve" smooth="yes"/>
      <point x="475" y="711"/>
      <point x="550" y="656"/>
      <point x="526" y="570" type="curve" smooth="yes"/>
      <point x="513" y="523"/>
      <point x="474" y="488"/>
      <point x="436" y="461" type="curve" smooth="yes"/>
      <point x="346" y="403" type="line"/>
      <point x="484" y="401" type="line"/>
      <point x="442" y="282" type="line"/>
    </contour>
    <contour>
      <point x="809" y="202" type="curve"/>
      <point x="825" y="253" type="line"/>
      <point x="853" y="259"/>
      <point x="905" y="268"/>
      <point x="914" y="302" type="curve" smooth="yes"/>
      <point x="917" y="315"/>
      <point x="906" y="326"/>
      <point x="894" y="326" type="curve" smooth="yes"/>
      <point x="868" y="325"/>
      <point x="851" y="304"/>
      <point x="836" y="287" type="curve"/>
      <point x="714" y="289" type="line"/>
      <point x="750" y="369"/>
      <point x="817" y="426"/>
      <point x="909" y="428" type="curve" smooth="yes"/>
      <point x="978" y="429"/>
      <point x="1063" y="391"/>
      <point x="1039" y="308" type="curve" smooth="yes"/>
      <point x="1012" y="213"/>
      <point x="890" y="205"/>
    </contour>
    <contour>
      <point x="775" y="-12" type="curve" smooth="yes"/>
      <point x="678" y="-10"/>
      <point x="635" y="56"/>
      <point x="645" y="147" type="curve"/>
      <point x="767" y="146" type="line"/>
      <point x="767" y="122"/>
      <point x="763" y="95"/>
      <point x="795" y="91" type="curve" smooth="yes"/>
      <point x="817" y="88"/>
      <point x="854" y="111"/>
      <point x="861" y="132" type="curve" smooth="yes"/>
      <point x="875" y="172"/>
      <point x="822" y="174"/>
      <point x="797" y="178" type="curve"/>
      <point x="816" y="238" type="line"/>
      <point x="890" y="235"/>
      <point x="1013" y="219"/>
      <point x="985" y="115" type="curve" smooth="yes"/>
      <point x="962" y="28"/>
      <point x="857" y="-14"/>
    </contour>
  </outline>
</glyph>
<glyph name="threeeighths" format="2">
  <advance width="956"/>
  <unicode hex="215C"/>
  <outline>
    <contour>
      <point x="830" y="699" type="line"/>
      <point x="995" y="699" type="line"/>
      <point x="265" y="0" type="line"/>
      <point x="100" y="0" type="line"/>
    </contour>
    <contour>
      <point x="268" y="482" type="curve"/>
      <point x="284" y="533" type="line"/>
      <point x="312" y="539"/>
      <point x="363" y="548"/>
      <point x="372" y="582" type="curve" smooth="yes"/>
      <point x="375" y="595"/>
      <point x="364" y="606"/>
      <point x="352" y="606" type="curve" smooth="yes"/>
      <point x="326" y="605"/>
      <point x="309" y="584"/>
      <point x="294" y="567" type="curve"/>
      <point x="173" y="569" type="line"/>
      <point x="209" y="649"/>
      <point x="276" y="706"/>
      <point x="368" y="708" type="curve" smooth="yes"/>
      <point x="437" y="709"/>
      <point x="522" y="671"/>
      <point x="498" y="588" type="curve" smooth="yes"/>
      <point x="471" y="493"/>
      <point x="349" y="485"/>
    </contour>
    <contour>
      <point x="234" y="268" type="curve" smooth="yes"/>
      <point x="137" y="270"/>
      <point x="94" y="336"/>
      <point x="104" y="427" type="curve"/>
      <point x="226" y="426" type="line"/>
      <point x="226" y="402"/>
      <point x="221" y="375"/>
      <point x="253" y="371" type="curve" smooth="yes"/>
      <point x="275" y="368"/>
      <point x="313" y="391"/>
      <point x="320" y="412" type="curve" smooth="yes"/>
      <point x="334" y="452"/>
      <point x="280" y="454"/>
      <point x="255" y="458" type="curve"/>
      <point x="275" y="518" type="line"/>
      <point x="349" y="515"/>
      <point x="471" y="499"/>
      <point x="443" y="395" type="curve" smooth="yes"/>
      <point x="420" y="308"/>
      <point x="316" y="266"/>
    </contour>
    <contour>
      <point x="668" y="321" type="curve" smooth="yes"/>
      <point x="688" y="396"/>
      <point x="777" y="431"/>
      <point x="848" y="431" type="curve" smooth="yes"/>
      <point x="914" y="431"/>
      <point x="993" y="396"/>
      <point x="971" y="317" type="curve" smooth="yes"/>
      <point x="951" y="243"/>
      <point x="862" y="202"/>
      <point x="790" y="202" type="curve" smooth="yes"/>
      <point x="723" y="202"/>
      <point x="648" y="244"/>
    </contour>
    <contour>
      <point x="784" y="305" type="curve" smooth="yes"/>
      <point x="780" y="294"/>
      <point x="781" y="272"/>
      <point x="797" y="270" type="curve" smooth="yes"/>
      <point x="815" y="268"/>
      <point x="842" y="294"/>
      <point x="847" y="309" type="curve" smooth="yes"/>
      <point x="851" y="321"/>
      <point x="849" y="340"/>
      <point x="834" y="342" type="curve" smooth="yes"/>
      <point x="816" y="344"/>
      <point x="790" y="320"/>
    </contour>
    <contour>
      <point x="584" y="116" type="curve" smooth="yes"/>
      <point x="606" y="198"/>
      <point x="704" y="239"/>
      <point x="782" y="239" type="curve" smooth="yes"/>
      <point x="855" y="239"/>
      <point x="938" y="197"/>
      <point x="915" y="112" type="curve" smooth="yes"/>
      <point x="893" y="31"/>
      <point x="795" y="-11"/>
      <point x="717" y="-11" type="curve" smooth="yes"/>
      <point x="645" y="-11"/>
      <point x="561" y="32"/>
    </contour>
    <contour>
      <point x="719" y="133" type="curve" smooth="yes"/>
      <point x="713" y="119"/>
      <point x="717" y="95"/>
      <point x="736" y="93" type="curve" smooth="yes"/>
      <point x="757" y="91"/>
      <point x="789" y="119"/>
      <point x="795" y="137" type="curve" smooth="yes"/>
      <point x="800" y="151"/>
      <point x="793" y="172"/>
      <point x="776" y="174" type="curve" smooth="yes"/>
      <point x="756" y="176"/>
      <point x="726" y="150"/>
    </contour>
  </outline>
</glyph>
<glyph name="seveneighths" format="2">
  <advance width="858"/>
  <unicode hex="215E"/>
  <outline>
    <contour>
      <point x="721" y="699" type="line"/>
      <point x="886" y="699" type="line"/>
      <point x="157" y="0" type="line"/>
      <point x="-8" y="0" type="line"/>
    </contour>
    <contour>
      <point x="156" y="577" type="line"/>
      <point x="200" y="700" type="line"/>
      <point x="561" y="699" type="line"/>
      <point x="224" y="281" type="line"/>
      <point x="74" y="281" type="line"/>
      <point x="321" y="576" type="line"/>
    </contour>
    <contour>
      <point x="570" y="321" type="curve" smooth="yes"/>
      <point x="590" y="396"/>
      <point x="678" y="431"/>
      <point x="749" y="431" type="curve" smooth="yes"/>
      <point x="815" y="431"/>
      <point x="894" y="396"/>
      <point x="872" y="317" type="curve" smooth="yes"/>
      <point x="852" y="243"/>
      <point x="763" y="202"/>
      <point x="691" y="202" type="curve" smooth="yes"/>
      <point x="624" y="202"/>
      <point x="550" y="244"/>
    </contour>
    <contour>
      <point x="685" y="305" type="curve" smooth="yes"/>
      <point x="681" y="294"/>
      <point x="682" y="272"/>
      <point x="698" y="270" type="curve" smooth="yes"/>
      <point x="716" y="268"/>
      <point x="744" y="294"/>
      <point x="749" y="309" type="curve" smooth="yes"/>
      <point x="753" y="321"/>
      <point x="750" y="340"/>
      <point x="735" y="342" type="curve" smooth="yes"/>
      <point x="717" y="344"/>
      <point x="691" y="320"/>
    </contour>
    <contour>
      <point x="485" y="116" type="curve" smooth="yes"/>
      <point x="507" y="198"/>
      <point x="605" y="239"/>
      <point x="683" y="239" type="curve" smooth="yes"/>
      <point x="756" y="239"/>
      <point x="839" y="197"/>
      <point x="816" y="112" type="curve" smooth="yes"/>
      <point x="794" y="31"/>
      <point x="697" y="-11"/>
      <point x="619" y="-11" type="curve" smooth="yes"/>
      <point x="547" y="-11"/>
      <point x="462" y="32"/>
    </contour>
    <contour>
      <point x="621" y="133" type="curve" smooth="yes"/>
      <point x="615" y="119"/>
      <point x="619" y="95"/>
      <point x="638" y="93" type="curve" smooth="yes"/>
      <point x="659" y="91"/>
      <point x="690" y="119"/>
      <point x="696" y="137" type="curve" smooth="yes"/>
      <point x="701" y="151"/>
      <point x="695" y="172"/>
      <point x="678" y="174" type="curve" smooth="yes"/>
      <point x="658" y="176"/>
      <point x="628" y="150"/>
    </contour>
  </outline>
</glyph>
<glyph name="emptyset" format="2">
  <advance width="600"/>
  <unicode hex="2205"/>
  <outline>
    <contour>
      <point x="214" y="18" type="curve" smooth="yes"/>
      <point x="90" y="18"/>
      <point x="24" y="119"/>
      <point x="65" y="243" type="curve" smooth="yes"/>
      <point x="106" y="367"/>
      <point x="241" y="468"/>
      <point x="365" y="468" type="curve" smooth="yes"/>
      <point x="489" y="468"/>
      <point x="555" y="367"/>
      <point x="514" y="243" type="curve" smooth="yes"/>
      <point x="473" y="119"/>
      <point x="338" y="18"/>
    </contour>
    <contour>
      <point x="255" y="140" type="curve" smooth="yes"/>
      <point x="313" y="140"/>
      <point x="375" y="189"/>
      <point x="393" y="243" type="curve" smooth="yes"/>
      <point x="412" y="300"/>
      <point x="381" y="346"/>
      <point x="324" y="346" type="curve" smooth="yes"/>
      <point x="267" y="346"/>
      <point x="206" y="300"/>
      <point x="187" y="243" type="curve" smooth="yes"/>
      <point x="168" y="186"/>
      <point x="198" y="140"/>
    </contour>
    <contour>
      <point x="50" y="18" type="line"/>
      <point x="9" y="80" type="line"/>
      <point x="529" y="468" type="line"/>
      <point x="570" y="406" type="line"/>
    </contour>
  </outline>
</glyph>
<glyph name="product" format="2">
  <advance width="600"/>
  <unicode hex="220F"/>
  <outline>
    <contour>
      <point x="18" y="0" type="line"/>
      <point x="203" y="554" type="line"/>
      <point x="132" y="554" type="line"/>
      <point x="181" y="700" type="line"/>
      <point x="707" y="700" type="line"/>
      <point x="658" y="554" type="line"/>
      <point x="587" y="554" type="line"/>
      <point x="402" y="0" type="line"/>
      <point x="251" y="0" type="line"/>
      <point x="436" y="554" type="line"/>
      <point x="354" y="554" type="line"/>
      <point x="169" y="0" type="line"/>
    </contour>
  </outline>
</glyph>
<glyph name="summation" format="2">
  <advance width="600"/>
  <unicode hex="2211"/>
  <outline>
    <contour>
      <point x="10" y="0" type="line"/>
      <point x="298" y="352" type="line"/>
      <point x="244" y="700" type="line"/>
      <point x="644" y="700" type="line"/>
      <point x="592" y="544" type="line"/>
      <point x="448" y="544" type="line"/>
      <point x="478" y="352" type="line"/>
      <point x="318" y="156" type="line"/>
      <point x="462" y="156" type="line"/>
      <point x="410" y="0" type="line"/>
    </contour>
  </outline>
</glyph>
<glyph name="notequal" format="2">
  <advance width="600"/>
  <unicode hex="2260"/>
  <outline>
    <contour>
      <point x="179" y="-26" type="line"/>
      <point x="595" y="524" type="line"/>
      <point x="459" y="581" type="line"/>
      <point x="43" y="30" type="line"/>
    </contour>
    <contour>
      <point x="-13" y="80" type="line"/>
      <point x="520" y="80" type="line"/>
      <point x="575" y="245" type="line"/>
      <point x="42" y="245" type="line"/>
    </contour>
    <contour>
      <point x="67" y="320" type="line"/>
      <point x="600" y="320" type="line"/>
      <point x="655" y="485" type="line"/>
      <point x="122" y="485" type="line"/>
    </contour>
  </outline>
</glyph>
<glyph name="greaterequal" format="2">
  <advance width="600"/>
  <unicode hex="2265"/>
  <outline>
    <contour>
      <point x="-22" y="10" type="line"/>
      <point x="493" y="10" type="line"/>
      <point x="547" y="170" type="line"/>
      <point x="32" y="170" type="line"/>
    </contour>
    <contour>
      <point x="39" y="190" type="line"/>
      <point x="619" y="400" type="line"/>
      <point x="664" y="535" type="line"/>
      <point x="224" y="745" type="line"/>
      <point x="161" y="555" type="line"/>
      <point x="374" y="464" type="line"/>
      <point x="102" y="380" type="line"/>
    </contour>
  </outline>
</glyph>
<glyph name="uniFF11" format="2">
  <advance width="620"/>
  <unicode hex="FF11"/>
  <outline>
    <contour>
      <point x="196" y="456" type="line"/>
      <point x="262" y="644" type="line"/>
      <point x="665" y="718" type="line"/>
      <point x="419" y="0" type="line"/>
      <point x="215" y="0" type="line"/>
      <point x="385" y="496" type="line"/>
    </contour>
  </outline>
</glyph>
<glyph name="uniFF12" format="2">
  <advance width="620"/>
  <unicode hex="FF12"/>
  <outline>
    <contour>
      <point x="-60" y="0" type="line"/>
      <point x="328" y="305" type="line" smooth="yes"/>
      <point x="382" y="347"/>
      <point x="465" y="396"/>
      <point x="487" y="466" type="curve" smooth="yes"/>
      <point x="497" y="497"/>
      <point x="488" y="527"/>
      <point x="451" y="530" type="curve" smooth="yes"/>
      <point x="395" y="534"/>
      <point x="358" y="472"/>
      <point x="336" y="430" type="curve"/>
      <point x="127" y="432" type="line"/>
      <point x="183" y="592"/>
      <point x="324" y="717"/>
      <point x="500" y="716" type="curve" smooth="yes"/>
      <point x="632" y="716"/>
      <point x="750" y="621"/>
      <point x="709" y="480" type="curve" smooth="yes"/>
      <point x="686" y="401"/>
      <point x="622" y="342"/>
      <point x="555" y="297" type="curve" smooth="yes"/>
      <point x="403" y="201" type="line"/>
      <point x="638" y="199" type="line"/>
      <point x="569" y="0" type="line"/>
    </contour>
  </outline>
</glyph>
<glyph name="uniFF17" format="2">
  <advance width="620"/>
  <unicode hex="FF17"/>
  <outline>
    <contour>
      <point x="136" y="495" type="line"/>
      <point x="207" y="700" type="line"/>
      <point x="802" y="699" type="line"/>
      <point x="242" y="0" type="line"/>
      <point x="1" y="0" type="line"/>
      <point x="414" y="494" type="line"/>
    </contour>
  </outline>
</glyph>
<glyph name="uniFF18" format="2">
  <advance width="620"/>
  <unicode hex="FF18"/>
  <outline>
    <contour>
      <point x="206" y="532" type="curve" smooth="yes"/>
      <point x="243" y="660"/>
      <point x="386" y="720"/>
      <point x="509" y="720" type="curve" smooth="yes"/>
      <point x="620" y="720"/>
      <point x="744" y="660"/>
      <point x="707" y="530" type="curve" smooth="yes"/>
      <point x="671" y="403"/>
      <point x="525" y="335"/>
      <point x="402" y="335" type="curve" smooth="yes"/>
      <point x="291" y="335"/>
      <point x="170" y="405"/>
    </contour>
    <contour>
      <point x="396" y="509" type="curve" smooth="yes"/>
      <point x="388" y="486"/>
      <point x="393" y="455"/>
      <point x="422" y="451" type="curve" smooth="yes"/>
      <point x="453" y="446"/>
      <point x="494" y="486"/>
      <point x="503" y="513" type="curve" smooth="yes"/>
      <point x="511" y="537"/>
      <point x="506" y="565"/>
      <point x="477" y="569" type="curve" smooth="yes"/>
      <point x="446" y="573"/>
      <point x="405" y="536"/>
    </contour>
    <contour>
      <point x="66" y="191" type="curve" smooth="yes"/>
      <point x="106" y="330"/>
      <point x="264" y="400"/>
      <point x="399" y="400" type="curve" smooth="yes"/>
      <point x="519" y="400"/>
      <point x="654" y="329"/>
      <point x="614" y="189" type="curve" smooth="yes"/>
      <point x="574" y="51"/>
      <point x="414" y="-20"/>
      <point x="280" y="-20" type="curve" smooth="yes"/>
      <point x="160" y="-20"/>
      <point x="26" y="52"/>
    </contour>
    <contour>
      <point x="289" y="223" type="curve" smooth="yes"/>
      <point x="278" y="194"/>
      <point x="285" y="159"/>
      <point x="321" y="156" type="curve" smooth="yes"/>
      <point x="359" y="153"/>
      <point x="403" y="193"/>
      <point x="415" y="227" type="curve" smooth="yes"/>
      <point x="424" y="255"/>
      <point x="415" y="286"/>
      <point x="382" y="289" type="curve" smooth="yes"/>
      <point x="346" y="292"/>
      <point x="302" y="255"/>
    </contour>
  </outline>
</glyph>
